<?xml version="1.0" standalone="no"?>
<!DOCTYPE svg PUBLIC "-//W3C//DTD SVG 1.1//EN" "http://www.w3.org/Graphics/SVG/1.1/DTD/svg11.dtd" >
<svg xmlns="http://www.w3.org/2000/svg" xmlns:xlink="http://www.w3.org/1999/xlink" version="1.1">
<metadata></metadata>
<defs>
<font id="cera_promedium" horiz-adv-x="1224" >
<font-face units-per-em="2048" ascent="1655" descent="-393" />
<missing-glyph horiz-adv-x="573" />
<glyph horiz-adv-x="0" />
<glyph horiz-adv-x="682" />
<glyph unicode=" "  horiz-adv-x="573" />
<glyph unicode="&#x09;" horiz-adv-x="573" />
<glyph unicode="&#xa0;" horiz-adv-x="573" />
<glyph unicode="!" d="M129 154v292q61 9 76 9q67 0 96 -37.5t29 -116.5t-29.5 -115t-97.5 -36q-47 0 -74 4zM158 780q0 53 33.5 91t93.5 38q39 0 78 -21t69.5 -55t58.5 -74.5t48 -81.5t35 -75t22 -55l8 -21q-117 148 -319 148q-49 0 -88 30t-39 76zM188 201q4 -2 19 -2q37 0 50 25t13 77 q0 54 -13 78t-50 24q-13 0 -19 -2v-200zM377 154v297h155v-52h-96v-69h82v-49h-82v-78h96v-49h-155zM437 1128.5q-7 46.5 24 83.5q23 23 53 34t65 3.5t64 -35.5q38 -37 48.5 -102t-2.5 -131t-31.5 -126.5t-35.5 -98.5l-18 -39q20 191 -125 330q-35 35 -42 81.5zM571 154 q3 156 15 297h80l39 -164l38 164h82q3 -45 13 -297h-60q0 108 -6 213l-41 -168h-55l-41 168h-2q-4 -140 -4 -213h-58zM647 633q3 8 9 22t25 53.5t39 75.5t50 80.5t59.5 76t66 53.5t71.5 22q49 0 79.5 -24.5t39 -51t8.5 -53.5q0 -43 -34.5 -72.5t-72.5 -34.5 q-213 -23 -340 -147zM879 301q0 81 24 117.5t84 36.5t85.5 -37t25.5 -117q0 -79 -25.5 -115t-85.5 -36t-84 35.5t-24 115.5zM938 301q0 -54 10 -78t39 -24q30 0 40.5 24t10.5 78q0 55 -10 78.5t-41 23.5q-29 0 -39 -23.5t-10 -78.5z" />
<glyph unicode="&#x22;" d="M129 154v292q61 9 76 9q67 0 96 -37.5t29 -116.5t-29.5 -115t-97.5 -36q-47 0 -74 4zM158 780q0 53 33.5 91t93.5 38q39 0 78 -21t69.5 -55t58.5 -74.5t48 -81.5t35 -75t22 -55l8 -21q-117 148 -319 148q-49 0 -88 30t-39 76zM188 201q4 -2 19 -2q37 0 50 25t13 77 q0 54 -13 78t-50 24q-13 0 -19 -2v-200zM377 154v297h155v-52h-96v-69h82v-49h-82v-78h96v-49h-155zM437 1128.5q-7 46.5 24 83.5q23 23 53 34t65 3.5t64 -35.5q38 -37 48.5 -102t-2.5 -131t-31.5 -126.5t-35.5 -98.5l-18 -39q20 191 -125 330q-35 35 -42 81.5zM571 154 q3 156 15 297h80l39 -164l38 164h82q3 -45 13 -297h-60q0 108 -6 213l-41 -168h-55l-41 168h-2q-4 -140 -4 -213h-58zM647 633q3 8 9 22t25 53.5t39 75.5t50 80.5t59.5 76t66 53.5t71.5 22q49 0 79.5 -24.5t39 -51t8.5 -53.5q0 -43 -34.5 -72.5t-72.5 -34.5 q-213 -23 -340 -147zM879 301q0 81 24 117.5t84 36.5t85.5 -37t25.5 -117q0 -79 -25.5 -115t-85.5 -36t-84 35.5t-24 115.5zM938 301q0 -54 10 -78t39 -24q30 0 40.5 24t10.5 78q0 55 -10 78.5t-41 23.5q-29 0 -39 -23.5t-10 -78.5z" />
<glyph unicode="#" d="M129 154v292q61 9 76 9q67 0 96 -37.5t29 -116.5t-29.5 -115t-97.5 -36q-47 0 -74 4zM158 780q0 53 33.5 91t93.5 38q39 0 78 -21t69.5 -55t58.5 -74.5t48 -81.5t35 -75t22 -55l8 -21q-117 148 -319 148q-49 0 -88 30t-39 76zM188 201q4 -2 19 -2q37 0 50 25t13 77 q0 54 -13 78t-50 24q-13 0 -19 -2v-200zM377 154v297h155v-52h-96v-69h82v-49h-82v-78h96v-49h-155zM437 1128.5q-7 46.5 24 83.5q23 23 53 34t65 3.5t64 -35.5q38 -37 48.5 -102t-2.5 -131t-31.5 -126.5t-35.5 -98.5l-18 -39q20 191 -125 330q-35 35 -42 81.5zM571 154 q3 156 15 297h80l39 -164l38 164h82q3 -45 13 -297h-60q0 108 -6 213l-41 -168h-55l-41 168h-2q-4 -140 -4 -213h-58zM647 633q3 8 9 22t25 53.5t39 75.5t50 80.5t59.5 76t66 53.5t71.5 22q49 0 79.5 -24.5t39 -51t8.5 -53.5q0 -43 -34.5 -72.5t-72.5 -34.5 q-213 -23 -340 -147zM879 301q0 81 24 117.5t84 36.5t85.5 -37t25.5 -117q0 -79 -25.5 -115t-85.5 -36t-84 35.5t-24 115.5zM938 301q0 -54 10 -78t39 -24q30 0 40.5 24t10.5 78q0 55 -10 78.5t-41 23.5q-29 0 -39 -23.5t-10 -78.5z" />
<glyph unicode="$" d="M129 154v292q61 9 76 9q67 0 96 -37.5t29 -116.5t-29.5 -115t-97.5 -36q-47 0 -74 4zM158 780q0 53 33.5 91t93.5 38q39 0 78 -21t69.5 -55t58.5 -74.5t48 -81.5t35 -75t22 -55l8 -21q-117 148 -319 148q-49 0 -88 30t-39 76zM188 201q4 -2 19 -2q37 0 50 25t13 77 q0 54 -13 78t-50 24q-13 0 -19 -2v-200zM377 154v297h155v-52h-96v-69h82v-49h-82v-78h96v-49h-155zM437 1128.5q-7 46.5 24 83.5q23 23 53 34t65 3.5t64 -35.5q38 -37 48.5 -102t-2.5 -131t-31.5 -126.5t-35.5 -98.5l-18 -39q20 191 -125 330q-35 35 -42 81.5zM571 154 q3 156 15 297h80l39 -164l38 164h82q3 -45 13 -297h-60q0 108 -6 213l-41 -168h-55l-41 168h-2q-4 -140 -4 -213h-58zM647 633q3 8 9 22t25 53.5t39 75.5t50 80.5t59.5 76t66 53.5t71.5 22q49 0 79.5 -24.5t39 -51t8.5 -53.5q0 -43 -34.5 -72.5t-72.5 -34.5 q-213 -23 -340 -147zM879 301q0 81 24 117.5t84 36.5t85.5 -37t25.5 -117q0 -79 -25.5 -115t-85.5 -36t-84 35.5t-24 115.5zM938 301q0 -54 10 -78t39 -24q30 0 40.5 24t10.5 78q0 55 -10 78.5t-41 23.5q-29 0 -39 -23.5t-10 -78.5z" />
<glyph unicode="%" d="M129 154v292q61 9 76 9q67 0 96 -37.5t29 -116.5t-29.5 -115t-97.5 -36q-47 0 -74 4zM158 780q0 53 33.5 91t93.5 38q39 0 78 -21t69.5 -55t58.5 -74.5t48 -81.5t35 -75t22 -55l8 -21q-117 148 -319 148q-49 0 -88 30t-39 76zM188 201q4 -2 19 -2q37 0 50 25t13 77 q0 54 -13 78t-50 24q-13 0 -19 -2v-200zM377 154v297h155v-52h-96v-69h82v-49h-82v-78h96v-49h-155zM437 1128.5q-7 46.5 24 83.5q23 23 53 34t65 3.5t64 -35.5q38 -37 48.5 -102t-2.5 -131t-31.5 -126.5t-35.5 -98.5l-18 -39q20 191 -125 330q-35 35 -42 81.5zM571 154 q3 156 15 297h80l39 -164l38 164h82q3 -45 13 -297h-60q0 108 -6 213l-41 -168h-55l-41 168h-2q-4 -140 -4 -213h-58zM647 633q3 8 9 22t25 53.5t39 75.5t50 80.5t59.5 76t66 53.5t71.5 22q49 0 79.5 -24.5t39 -51t8.5 -53.5q0 -43 -34.5 -72.5t-72.5 -34.5 q-213 -23 -340 -147zM879 301q0 81 24 117.5t84 36.5t85.5 -37t25.5 -117q0 -79 -25.5 -115t-85.5 -36t-84 35.5t-24 115.5zM938 301q0 -54 10 -78t39 -24q30 0 40.5 24t10.5 78q0 55 -10 78.5t-41 23.5q-29 0 -39 -23.5t-10 -78.5z" />
<glyph unicode="&#x26;" d="M129 154v292q61 9 76 9q67 0 96 -37.5t29 -116.5t-29.5 -115t-97.5 -36q-47 0 -74 4zM158 780q0 53 33.5 91t93.5 38q39 0 78 -21t69.5 -55t58.5 -74.5t48 -81.5t35 -75t22 -55l8 -21q-117 148 -319 148q-49 0 -88 30t-39 76zM188 201q4 -2 19 -2q37 0 50 25t13 77 q0 54 -13 78t-50 24q-13 0 -19 -2v-200zM377 154v297h155v-52h-96v-69h82v-49h-82v-78h96v-49h-155zM437 1128.5q-7 46.5 24 83.5q23 23 53 34t65 3.5t64 -35.5q38 -37 48.5 -102t-2.5 -131t-31.5 -126.5t-35.5 -98.5l-18 -39q20 191 -125 330q-35 35 -42 81.5zM571 154 q3 156 15 297h80l39 -164l38 164h82q3 -45 13 -297h-60q0 108 -6 213l-41 -168h-55l-41 168h-2q-4 -140 -4 -213h-58zM647 633q3 8 9 22t25 53.5t39 75.5t50 80.5t59.5 76t66 53.5t71.5 22q49 0 79.5 -24.5t39 -51t8.5 -53.5q0 -43 -34.5 -72.5t-72.5 -34.5 q-213 -23 -340 -147zM879 301q0 81 24 117.5t84 36.5t85.5 -37t25.5 -117q0 -79 -25.5 -115t-85.5 -36t-84 35.5t-24 115.5zM938 301q0 -54 10 -78t39 -24q30 0 40.5 24t10.5 78q0 55 -10 78.5t-41 23.5q-29 0 -39 -23.5t-10 -78.5z" />
<glyph unicode="'" d="M129 154v292q61 9 76 9q67 0 96 -37.5t29 -116.5t-29.5 -115t-97.5 -36q-47 0 -74 4zM158 780q0 53 33.5 91t93.5 38q39 0 78 -21t69.5 -55t58.5 -74.5t48 -81.5t35 -75t22 -55l8 -21q-117 148 -319 148q-49 0 -88 30t-39 76zM188 201q4 -2 19 -2q37 0 50 25t13 77 q0 54 -13 78t-50 24q-13 0 -19 -2v-200zM377 154v297h155v-52h-96v-69h82v-49h-82v-78h96v-49h-155zM437 1128.5q-7 46.5 24 83.5q23 23 53 34t65 3.5t64 -35.5q38 -37 48.5 -102t-2.5 -131t-31.5 -126.5t-35.5 -98.5l-18 -39q20 191 -125 330q-35 35 -42 81.5zM571 154 q3 156 15 297h80l39 -164l38 164h82q3 -45 13 -297h-60q0 108 -6 213l-41 -168h-55l-41 168h-2q-4 -140 -4 -213h-58zM647 633q3 8 9 22t25 53.5t39 75.5t50 80.5t59.5 76t66 53.5t71.5 22q49 0 79.5 -24.5t39 -51t8.5 -53.5q0 -43 -34.5 -72.5t-72.5 -34.5 q-213 -23 -340 -147zM879 301q0 81 24 117.5t84 36.5t85.5 -37t25.5 -117q0 -79 -25.5 -115t-85.5 -36t-84 35.5t-24 115.5zM938 301q0 -54 10 -78t39 -24q30 0 40.5 24t10.5 78q0 55 -10 78.5t-41 23.5q-29 0 -39 -23.5t-10 -78.5z" />
<glyph unicode="(" d="M129 154v292q61 9 76 9q67 0 96 -37.5t29 -116.5t-29.5 -115t-97.5 -36q-47 0 -74 4zM158 780q0 53 33.5 91t93.5 38q39 0 78 -21t69.5 -55t58.5 -74.5t48 -81.5t35 -75t22 -55l8 -21q-117 148 -319 148q-49 0 -88 30t-39 76zM188 201q4 -2 19 -2q37 0 50 25t13 77 q0 54 -13 78t-50 24q-13 0 -19 -2v-200zM377 154v297h155v-52h-96v-69h82v-49h-82v-78h96v-49h-155zM437 1128.5q-7 46.5 24 83.5q23 23 53 34t65 3.5t64 -35.5q38 -37 48.5 -102t-2.5 -131t-31.5 -126.5t-35.5 -98.5l-18 -39q20 191 -125 330q-35 35 -42 81.5zM571 154 q3 156 15 297h80l39 -164l38 164h82q3 -45 13 -297h-60q0 108 -6 213l-41 -168h-55l-41 168h-2q-4 -140 -4 -213h-58zM647 633q3 8 9 22t25 53.5t39 75.5t50 80.5t59.5 76t66 53.5t71.5 22q49 0 79.5 -24.5t39 -51t8.5 -53.5q0 -43 -34.5 -72.5t-72.5 -34.5 q-213 -23 -340 -147zM879 301q0 81 24 117.5t84 36.5t85.5 -37t25.5 -117q0 -79 -25.5 -115t-85.5 -36t-84 35.5t-24 115.5zM938 301q0 -54 10 -78t39 -24q30 0 40.5 24t10.5 78q0 55 -10 78.5t-41 23.5q-29 0 -39 -23.5t-10 -78.5z" />
<glyph unicode=")" d="M129 154v292q61 9 76 9q67 0 96 -37.5t29 -116.5t-29.5 -115t-97.5 -36q-47 0 -74 4zM158 780q0 53 33.5 91t93.5 38q39 0 78 -21t69.5 -55t58.5 -74.5t48 -81.5t35 -75t22 -55l8 -21q-117 148 -319 148q-49 0 -88 30t-39 76zM188 201q4 -2 19 -2q37 0 50 25t13 77 q0 54 -13 78t-50 24q-13 0 -19 -2v-200zM377 154v297h155v-52h-96v-69h82v-49h-82v-78h96v-49h-155zM437 1128.5q-7 46.5 24 83.5q23 23 53 34t65 3.5t64 -35.5q38 -37 48.5 -102t-2.5 -131t-31.5 -126.5t-35.5 -98.5l-18 -39q20 191 -125 330q-35 35 -42 81.5zM571 154 q3 156 15 297h80l39 -164l38 164h82q3 -45 13 -297h-60q0 108 -6 213l-41 -168h-55l-41 168h-2q-4 -140 -4 -213h-58zM647 633q3 8 9 22t25 53.5t39 75.5t50 80.5t59.5 76t66 53.5t71.5 22q49 0 79.5 -24.5t39 -51t8.5 -53.5q0 -43 -34.5 -72.5t-72.5 -34.5 q-213 -23 -340 -147zM879 301q0 81 24 117.5t84 36.5t85.5 -37t25.5 -117q0 -79 -25.5 -115t-85.5 -36t-84 35.5t-24 115.5zM938 301q0 -54 10 -78t39 -24q30 0 40.5 24t10.5 78q0 55 -10 78.5t-41 23.5q-29 0 -39 -23.5t-10 -78.5z" />
<glyph unicode="*" d="M129 154v292q61 9 76 9q67 0 96 -37.5t29 -116.5t-29.5 -115t-97.5 -36q-47 0 -74 4zM158 780q0 53 33.5 91t93.5 38q39 0 78 -21t69.5 -55t58.5 -74.5t48 -81.5t35 -75t22 -55l8 -21q-117 148 -319 148q-49 0 -88 30t-39 76zM188 201q4 -2 19 -2q37 0 50 25t13 77 q0 54 -13 78t-50 24q-13 0 -19 -2v-200zM377 154v297h155v-52h-96v-69h82v-49h-82v-78h96v-49h-155zM437 1128.5q-7 46.5 24 83.5q23 23 53 34t65 3.5t64 -35.5q38 -37 48.5 -102t-2.5 -131t-31.5 -126.5t-35.5 -98.5l-18 -39q20 191 -125 330q-35 35 -42 81.5zM571 154 q3 156 15 297h80l39 -164l38 164h82q3 -45 13 -297h-60q0 108 -6 213l-41 -168h-55l-41 168h-2q-4 -140 -4 -213h-58zM647 633q3 8 9 22t25 53.5t39 75.5t50 80.5t59.5 76t66 53.5t71.5 22q49 0 79.5 -24.5t39 -51t8.5 -53.5q0 -43 -34.5 -72.5t-72.5 -34.5 q-213 -23 -340 -147zM879 301q0 81 24 117.5t84 36.5t85.5 -37t25.5 -117q0 -79 -25.5 -115t-85.5 -36t-84 35.5t-24 115.5zM938 301q0 -54 10 -78t39 -24q30 0 40.5 24t10.5 78q0 55 -10 78.5t-41 23.5q-29 0 -39 -23.5t-10 -78.5z" />
<glyph unicode="+" d="M129 154v292q61 9 76 9q67 0 96 -37.5t29 -116.5t-29.5 -115t-97.5 -36q-47 0 -74 4zM158 780q0 53 33.5 91t93.5 38q39 0 78 -21t69.5 -55t58.5 -74.5t48 -81.5t35 -75t22 -55l8 -21q-117 148 -319 148q-49 0 -88 30t-39 76zM188 201q4 -2 19 -2q37 0 50 25t13 77 q0 54 -13 78t-50 24q-13 0 -19 -2v-200zM377 154v297h155v-52h-96v-69h82v-49h-82v-78h96v-49h-155zM437 1128.5q-7 46.5 24 83.5q23 23 53 34t65 3.5t64 -35.5q38 -37 48.5 -102t-2.5 -131t-31.5 -126.5t-35.5 -98.5l-18 -39q20 191 -125 330q-35 35 -42 81.5zM571 154 q3 156 15 297h80l39 -164l38 164h82q3 -45 13 -297h-60q0 108 -6 213l-41 -168h-55l-41 168h-2q-4 -140 -4 -213h-58zM647 633q3 8 9 22t25 53.5t39 75.5t50 80.5t59.5 76t66 53.5t71.5 22q49 0 79.5 -24.5t39 -51t8.5 -53.5q0 -43 -34.5 -72.5t-72.5 -34.5 q-213 -23 -340 -147zM879 301q0 81 24 117.5t84 36.5t85.5 -37t25.5 -117q0 -79 -25.5 -115t-85.5 -36t-84 35.5t-24 115.5zM938 301q0 -54 10 -78t39 -24q30 0 40.5 24t10.5 78q0 55 -10 78.5t-41 23.5q-29 0 -39 -23.5t-10 -78.5z" />
<glyph unicode="," horiz-adv-x="573" d="M158 -365l20 582h250l-96 -582h-174z" />
<glyph unicode="-" d="M129 154v292q61 9 76 9q67 0 96 -37.5t29 -116.5t-29.5 -115t-97.5 -36q-47 0 -74 4zM158 780q0 53 33.5 91t93.5 38q39 0 78 -21t69.5 -55t58.5 -74.5t48 -81.5t35 -75t22 -55l8 -21q-117 148 -319 148q-49 0 -88 30t-39 76zM188 201q4 -2 19 -2q37 0 50 25t13 77 q0 54 -13 78t-50 24q-13 0 -19 -2v-200zM377 154v297h155v-52h-96v-69h82v-49h-82v-78h96v-49h-155zM437 1128.5q-7 46.5 24 83.5q23 23 53 34t65 3.5t64 -35.5q38 -37 48.5 -102t-2.5 -131t-31.5 -126.5t-35.5 -98.5l-18 -39q20 191 -125 330q-35 35 -42 81.5zM571 154 q3 156 15 297h80l39 -164l38 164h82q3 -45 13 -297h-60q0 108 -6 213l-41 -168h-55l-41 168h-2q-4 -140 -4 -213h-58zM647 633q3 8 9 22t25 53.5t39 75.5t50 80.5t59.5 76t66 53.5t71.5 22q49 0 79.5 -24.5t39 -51t8.5 -53.5q0 -43 -34.5 -72.5t-72.5 -34.5 q-213 -23 -340 -147zM879 301q0 81 24 117.5t84 36.5t85.5 -37t25.5 -117q0 -79 -25.5 -115t-85.5 -36t-84 35.5t-24 115.5zM938 301q0 -54 10 -78t39 -24q30 0 40.5 24t10.5 78q0 55 -10 78.5t-41 23.5q-29 0 -39 -23.5t-10 -78.5z" />
<glyph unicode="." horiz-adv-x="573" d="M127 135q0 68 47 114t115 46q66 0 111.5 -45.5t45.5 -114.5q0 -68 -45 -113t-112 -45q-68 0 -115 45t-47 113z" />
<glyph unicode="/" d="M129 154v292q61 9 76 9q67 0 96 -37.5t29 -116.5t-29.5 -115t-97.5 -36q-47 0 -74 4zM158 780q0 53 33.5 91t93.5 38q39 0 78 -21t69.5 -55t58.5 -74.5t48 -81.5t35 -75t22 -55l8 -21q-117 148 -319 148q-49 0 -88 30t-39 76zM188 201q4 -2 19 -2q37 0 50 25t13 77 q0 54 -13 78t-50 24q-13 0 -19 -2v-200zM377 154v297h155v-52h-96v-69h82v-49h-82v-78h96v-49h-155zM437 1128.5q-7 46.5 24 83.5q23 23 53 34t65 3.5t64 -35.5q38 -37 48.5 -102t-2.5 -131t-31.5 -126.5t-35.5 -98.5l-18 -39q20 191 -125 330q-35 35 -42 81.5zM571 154 q3 156 15 297h80l39 -164l38 164h82q3 -45 13 -297h-60q0 108 -6 213l-41 -168h-55l-41 168h-2q-4 -140 -4 -213h-58zM647 633q3 8 9 22t25 53.5t39 75.5t50 80.5t59.5 76t66 53.5t71.5 22q49 0 79.5 -24.5t39 -51t8.5 -53.5q0 -43 -34.5 -72.5t-72.5 -34.5 q-213 -23 -340 -147zM879 301q0 81 24 117.5t84 36.5t85.5 -37t25.5 -117q0 -79 -25.5 -115t-85.5 -36t-84 35.5t-24 115.5zM938 301q0 -54 10 -78t39 -24q30 0 40.5 24t10.5 78q0 55 -10 78.5t-41 23.5q-29 0 -39 -23.5t-10 -78.5z" />
<glyph unicode="0" horiz-adv-x="1280" d="M125 688q0 149 31.5 272.5t94 216.5t162 145t228.5 52t228.5 -52t161 -145t93 -216.5t31.5 -272.5q0 -148 -31 -274.5t-92 -225.5t-161 -155t-230 -56q-105 0 -191 37t-145.5 102t-100.5 155t-60 194.5t-19 222.5zM350 686q0 -240 70.5 -375t220.5 -135q149 0 219 135.5 t70 374.5q0 490 -289 490q-291 0 -291 -490z" />
<glyph unicode="1" horiz-adv-x="798" d="M49 1198l469 154h76v-1352h-217v1096l-275 -88z" />
<glyph unicode="2" horiz-adv-x="1171" d="M94 0v49l481 518q113 119 164.5 202.5t51.5 168.5q0 101 -61.5 169.5t-164.5 68.5t-166 -71t-63 -175q0 -43 10 -105h-219q-14 55 -14 117q0 81 31.5 158t88 138.5t144 98.5t190.5 37q194 0 321.5 -119.5t127.5 -300.5q0 -59 -17 -118t-40.5 -104.5t-66.5 -102.5 t-75.5 -94t-87.5 -95l-237 -252h571v-188h-969z" />
<glyph unicode="3" horiz-adv-x="1112" d="M43 270l152 107q62 -95 137 -148t180 -53q121 0 198.5 70t77.5 186q0 114 -80.5 176t-230.5 62h-149v59l315 424h-504v199h842v-60l-328 -442q70 -12 133 -44t114.5 -82.5t81.5 -125.5t30 -164q0 -102 -40 -188.5t-108 -145t-157.5 -91t-188.5 -32.5q-163 0 -285 81.5 t-190 211.5z" />
<glyph unicode="4" d="M129 154v292q61 9 76 9q67 0 96 -37.5t29 -116.5t-29.5 -115t-97.5 -36q-47 0 -74 4zM158 780q0 53 33.5 91t93.5 38q39 0 78 -21t69.5 -55t58.5 -74.5t48 -81.5t35 -75t22 -55l8 -21q-117 148 -319 148q-49 0 -88 30t-39 76zM188 201q4 -2 19 -2q37 0 50 25t13 77 q0 54 -13 78t-50 24q-13 0 -19 -2v-200zM377 154v297h155v-52h-96v-69h82v-49h-82v-78h96v-49h-155zM437 1128.5q-7 46.5 24 83.5q23 23 53 34t65 3.5t64 -35.5q38 -37 48.5 -102t-2.5 -131t-31.5 -126.5t-35.5 -98.5l-18 -39q20 191 -125 330q-35 35 -42 81.5zM571 154 q3 156 15 297h80l39 -164l38 164h82q3 -45 13 -297h-60q0 108 -6 213l-41 -168h-55l-41 168h-2q-4 -140 -4 -213h-58zM647 633q3 8 9 22t25 53.5t39 75.5t50 80.5t59.5 76t66 53.5t71.5 22q49 0 79.5 -24.5t39 -51t8.5 -53.5q0 -43 -34.5 -72.5t-72.5 -34.5 q-213 -23 -340 -147zM879 301q0 81 24 117.5t84 36.5t85.5 -37t25.5 -117q0 -79 -25.5 -115t-85.5 -36t-84 35.5t-24 115.5zM938 301q0 -54 10 -78t39 -24q30 0 40.5 24t10.5 78q0 55 -10 78.5t-41 23.5q-29 0 -39 -23.5t-10 -78.5z" />
<glyph unicode="5" horiz-adv-x="1144" d="M61 268l152 109q129 -201 328 -201q121 0 200.5 70t79.5 186t-80.5 178t-230.5 62h-311v680h770v-195h-557v-317q79 18 172 18q89 0 170.5 -27t146.5 -77.5t104 -133t39 -184.5q0 -103 -40.5 -190t-108.5 -145.5t-158 -91t-190 -32.5q-168 0 -292.5 80.5t-193.5 210.5z " />
<glyph unicode="6" horiz-adv-x="1138" d="M92 446q0 49 11 98t22.5 81t43.5 86.5t46.5 75.5t60.5 87l338 478h256l-325 -461q27 6 59 6q87 0 168 -34.5t142 -93.5t98 -144t37 -181q0 -131 -65.5 -239t-175.5 -168t-239 -60t-238 60t-174 168t-65 241zM305 444q0 -115 75.5 -191.5t188.5 -76.5q111 0 188 76.5 t77 191.5t-77 192t-188 77q-112 0 -188 -77.5t-76 -191.5z" />
<glyph unicode="7" horiz-adv-x="1050" d="M74 1157v195h927v-60l-653 -1292h-235l596 1157h-635z" />
<glyph unicode="8" horiz-adv-x="1193" d="M104 352q0 244 293 350q-229 122 -229 326q0 163 121.5 254.5t308.5 91.5q120 0 215 -39t153 -118.5t58 -188.5q0 -206 -229 -326q292 -108 292 -350q0 -169 -135.5 -272t-353.5 -103q-220 0 -357 103t-137 272zM324 360q0 -92 71 -147t203 -55q130 0 200 55t70 147 q0 48 -19.5 86.5t-59 67.5t-84 50t-109.5 44q-65 -23 -109.5 -44.5t-84 -50.5t-59 -67t-19.5 -86zM375 1020q0 -74 53.5 -121.5t167.5 -97.5q114 48 167.5 95.5t53.5 123.5q0 82 -62 129t-157 47q-98 0 -160.5 -46.5t-62.5 -129.5z" />
<glyph unicode="9" horiz-adv-x="1138" d="M92 907q0 131 65.5 239t175 168t238.5 60q128 0 237.5 -60t175 -168t65.5 -241q0 -49 -11 -98t-23 -81.5t-44 -85.5t-47.5 -75.5t-61.5 -87.5l-336 -477h-258l326 461q-27 -6 -59 -6q-115 0 -216.5 57.5t-164 162.5t-62.5 232zM305 907q0 -115 76.5 -191.5t189.5 -76.5 q111 0 187 77t76 191q0 115 -76 192t-187 77q-113 0 -189.5 -77t-76.5 -192z" />
<glyph unicode=":" horiz-adv-x="573" d="M127 135q0 68 47 114t115 46q66 0 111.5 -45.5t45.5 -114.5q0 -68 -45 -113t-112 -45q-68 0 -115 45t-47 113zM127 860q0 68 47 114t115 46q66 0 111.5 -45.5t45.5 -114.5q0 -68 -45 -113t-112 -45q-68 0 -115 45t-47 113z" />
<glyph unicode=";" horiz-adv-x="573" d="M127 860q0 68 47 114t115 46q66 0 111.5 -45.5t45.5 -114.5q0 -68 -45 -113t-112 -45q-68 0 -115 45t-47 113zM158 -365l20 582h250l-96 -582h-174z" />
<glyph unicode="&#x3c;" d="M129 154v292q61 9 76 9q67 0 96 -37.5t29 -116.5t-29.5 -115t-97.5 -36q-47 0 -74 4zM158 780q0 53 33.5 91t93.5 38q39 0 78 -21t69.5 -55t58.5 -74.5t48 -81.5t35 -75t22 -55l8 -21q-117 148 -319 148q-49 0 -88 30t-39 76zM188 201q4 -2 19 -2q37 0 50 25t13 77 q0 54 -13 78t-50 24q-13 0 -19 -2v-200zM377 154v297h155v-52h-96v-69h82v-49h-82v-78h96v-49h-155zM437 1128.5q-7 46.5 24 83.5q23 23 53 34t65 3.5t64 -35.5q38 -37 48.5 -102t-2.5 -131t-31.5 -126.5t-35.5 -98.5l-18 -39q20 191 -125 330q-35 35 -42 81.5zM571 154 q3 156 15 297h80l39 -164l38 164h82q3 -45 13 -297h-60q0 108 -6 213l-41 -168h-55l-41 168h-2q-4 -140 -4 -213h-58zM647 633q3 8 9 22t25 53.5t39 75.5t50 80.5t59.5 76t66 53.5t71.5 22q49 0 79.5 -24.5t39 -51t8.5 -53.5q0 -43 -34.5 -72.5t-72.5 -34.5 q-213 -23 -340 -147zM879 301q0 81 24 117.5t84 36.5t85.5 -37t25.5 -117q0 -79 -25.5 -115t-85.5 -36t-84 35.5t-24 115.5zM938 301q0 -54 10 -78t39 -24q30 0 40.5 24t10.5 78q0 55 -10 78.5t-41 23.5q-29 0 -39 -23.5t-10 -78.5z" />
<glyph unicode="=" d="M129 154v292q61 9 76 9q67 0 96 -37.5t29 -116.5t-29.5 -115t-97.5 -36q-47 0 -74 4zM158 780q0 53 33.5 91t93.5 38q39 0 78 -21t69.5 -55t58.5 -74.5t48 -81.5t35 -75t22 -55l8 -21q-117 148 -319 148q-49 0 -88 30t-39 76zM188 201q4 -2 19 -2q37 0 50 25t13 77 q0 54 -13 78t-50 24q-13 0 -19 -2v-200zM377 154v297h155v-52h-96v-69h82v-49h-82v-78h96v-49h-155zM437 1128.5q-7 46.5 24 83.5q23 23 53 34t65 3.5t64 -35.5q38 -37 48.5 -102t-2.5 -131t-31.5 -126.5t-35.5 -98.5l-18 -39q20 191 -125 330q-35 35 -42 81.5zM571 154 q3 156 15 297h80l39 -164l38 164h82q3 -45 13 -297h-60q0 108 -6 213l-41 -168h-55l-41 168h-2q-4 -140 -4 -213h-58zM647 633q3 8 9 22t25 53.5t39 75.5t50 80.5t59.5 76t66 53.5t71.5 22q49 0 79.5 -24.5t39 -51t8.5 -53.5q0 -43 -34.5 -72.5t-72.5 -34.5 q-213 -23 -340 -147zM879 301q0 81 24 117.5t84 36.5t85.5 -37t25.5 -117q0 -79 -25.5 -115t-85.5 -36t-84 35.5t-24 115.5zM938 301q0 -54 10 -78t39 -24q30 0 40.5 24t10.5 78q0 55 -10 78.5t-41 23.5q-29 0 -39 -23.5t-10 -78.5z" />
<glyph unicode="&#x3e;" d="M129 154v292q61 9 76 9q67 0 96 -37.5t29 -116.5t-29.5 -115t-97.5 -36q-47 0 -74 4zM158 780q0 53 33.5 91t93.5 38q39 0 78 -21t69.5 -55t58.5 -74.5t48 -81.5t35 -75t22 -55l8 -21q-117 148 -319 148q-49 0 -88 30t-39 76zM188 201q4 -2 19 -2q37 0 50 25t13 77 q0 54 -13 78t-50 24q-13 0 -19 -2v-200zM377 154v297h155v-52h-96v-69h82v-49h-82v-78h96v-49h-155zM437 1128.5q-7 46.5 24 83.5q23 23 53 34t65 3.5t64 -35.5q38 -37 48.5 -102t-2.5 -131t-31.5 -126.5t-35.5 -98.5l-18 -39q20 191 -125 330q-35 35 -42 81.5zM571 154 q3 156 15 297h80l39 -164l38 164h82q3 -45 13 -297h-60q0 108 -6 213l-41 -168h-55l-41 168h-2q-4 -140 -4 -213h-58zM647 633q3 8 9 22t25 53.5t39 75.5t50 80.5t59.5 76t66 53.5t71.5 22q49 0 79.5 -24.5t39 -51t8.5 -53.5q0 -43 -34.5 -72.5t-72.5 -34.5 q-213 -23 -340 -147zM879 301q0 81 24 117.5t84 36.5t85.5 -37t25.5 -117q0 -79 -25.5 -115t-85.5 -36t-84 35.5t-24 115.5zM938 301q0 -54 10 -78t39 -24q30 0 40.5 24t10.5 78q0 55 -10 78.5t-41 23.5q-29 0 -39 -23.5t-10 -78.5z" />
<glyph unicode="?" horiz-adv-x="917" d="M70 1077q42 144 143.5 220.5t243.5 76.5q160 0 270.5 -98t110.5 -250q0 -91 -45 -163t-138 -154q-46 -40 -61.5 -54.5t-41 -43t-34 -49.5t-8.5 -46q0 -23 8 -55h-184q-23 52 -23 94q0 63 41 118.5t121 123.5q81 72 111 113.5t30 99.5q0 73 -47.5 119.5t-117.5 46.5 q-140 0 -199 -177zM274 135q0 68 46.5 114t113.5 46q68 0 114 -45.5t46 -114.5q0 -68 -46 -113t-114 -45q-67 0 -113.5 45t-46.5 113z" />
<glyph unicode="@" d="M129 154v292q61 9 76 9q67 0 96 -37.5t29 -116.5t-29.5 -115t-97.5 -36q-47 0 -74 4zM158 780q0 53 33.5 91t93.5 38q39 0 78 -21t69.5 -55t58.5 -74.5t48 -81.5t35 -75t22 -55l8 -21q-117 148 -319 148q-49 0 -88 30t-39 76zM188 201q4 -2 19 -2q37 0 50 25t13 77 q0 54 -13 78t-50 24q-13 0 -19 -2v-200zM377 154v297h155v-52h-96v-69h82v-49h-82v-78h96v-49h-155zM437 1128.5q-7 46.5 24 83.5q23 23 53 34t65 3.5t64 -35.5q38 -37 48.5 -102t-2.5 -131t-31.5 -126.5t-35.5 -98.5l-18 -39q20 191 -125 330q-35 35 -42 81.5zM571 154 q3 156 15 297h80l39 -164l38 164h82q3 -45 13 -297h-60q0 108 -6 213l-41 -168h-55l-41 168h-2q-4 -140 -4 -213h-58zM647 633q3 8 9 22t25 53.5t39 75.5t50 80.5t59.5 76t66 53.5t71.5 22q49 0 79.5 -24.5t39 -51t8.5 -53.5q0 -43 -34.5 -72.5t-72.5 -34.5 q-213 -23 -340 -147zM879 301q0 81 24 117.5t84 36.5t85.5 -37t25.5 -117q0 -79 -25.5 -115t-85.5 -36t-84 35.5t-24 115.5zM938 301q0 -54 10 -78t39 -24q30 0 40.5 24t10.5 78q0 55 -10 78.5t-41 23.5q-29 0 -39 -23.5t-10 -78.5z" />
<glyph unicode="A" horiz-adv-x="1355" d="M45 0l596 1374h74l596 -1374h-234l-96 225h-608l-97 -225h-231zM451 412h452l-225 559z" />
<glyph unicode="B" horiz-adv-x="1265" d="M170 0v1352h473q183 0 294.5 -100.5t111.5 -260.5q0 -158 -113 -254q119 -38 185.5 -128.5t66.5 -215.5q0 -172 -120.5 -282.5t-317.5 -110.5h-580zM383 190h348q114 0 176 56t62 153t-62 154t-176 57h-348v-420zM383 797h240q100 0 154 50t54 134t-53.5 132t-154.5 48 h-240v-364z" />
<glyph unicode="C" horiz-adv-x="1468" d="M88 676q0 194 95 354.5t258 252t358 91.5q187 0 339 -83.5t240 -227.5l-164 -121q-152 234 -413 234q-210 0 -349 -142t-139 -358t139 -358t349 -142q261 0 413 234l164 -121q-86 -144 -239 -228t-340 -84q-195 0 -358 91t-258 252t-95 356z" />
<glyph unicode="D" horiz-adv-x="1417" d="M170 0v1352h424q220 0 387.5 -85t257.5 -238t90 -351q0 -146 -52.5 -271.5t-147 -215t-232.5 -140.5t-303 -51h-424zM387 195h205q235 0 374.5 134.5t139.5 348.5q0 218 -138.5 347.5t-375.5 129.5h-205v-960z" />
<glyph unicode="E" horiz-adv-x="1165" d="M170 0v1352h889v-195h-672v-346h506v-188h-506v-428h696v-195h-913z" />
<glyph unicode="F" horiz-adv-x="1083" d="M170 0v1352h868v-195h-651v-403h537v-197h-537v-557h-217z" />
<glyph unicode="G" horiz-adv-x="1527" d="M88 676q0 194 94.5 354.5t258 252t360.5 91.5q176 0 319 -73.5t240 -208.5l-158 -129q-151 213 -403 213q-215 0 -350.5 -141t-135.5 -357q0 -220 139 -363t359 -143q133 0 236 55t167 150v145h-415v193h633v-381q-90 -162 -258 -259.5t-373 -97.5q-148 0 -280 54 t-227 147t-150.5 222.5t-55.5 275.5z" />
<glyph unicode="H" horiz-adv-x="1456" d="M170 0v1352h217v-539h680v539h217v-1352h-217v618h-680v-618h-217z" />
<glyph unicode="I" horiz-adv-x="557" d="M170 0v1352h217v-1352h-217z" />
<glyph unicode="J" horiz-adv-x="780" d="M43 0v186q92 -10 139 -10q107 0 159 40.5t52 141.5v994h217v-1016q0 -181 -101 -270t-280 -89q-84 0 -186 23z" />
<glyph unicode="K" horiz-adv-x="1333" d="M170 0v1352h217v-1352h-217zM393 719l568 633h266l-561 -633l622 -719h-268z" />
<glyph unicode="L" horiz-adv-x="1054" d="M170 0v1352h217v-1157h619v-195h-836z" />
<glyph unicode="M" horiz-adv-x="1624" d="M170 0v1374h76l567 -756l567 756h74v-1374h-217v848l-387 -508h-74l-389 510v-850h-217z" />
<glyph unicode="N" horiz-adv-x="1456" d="M170 0v1374h76l821 -934v912h217v-1375h-74l-823 938v-915h-217z" />
<glyph unicode="O" horiz-adv-x="1597" d="M88 676q0 194 95 354.5t257.5 252t356.5 91.5q193 0 356 -91.5t258.5 -252t95.5 -354.5q0 -146 -56.5 -276t-151.5 -222.5t-226 -146.5t-276 -54q-195 0 -357.5 91.5t-257 252.5t-94.5 355zM313 678q0 -218 137.5 -360t348.5 -142q208 0 346.5 142.5t138.5 359.5 q0 213 -139 355.5t-346 142.5q-211 0 -348.5 -141.5t-137.5 -356.5z" />
<glyph unicode="P" horiz-adv-x="1193" d="M170 0v1352h494q205 0 331.5 -114.5t126.5 -299.5q0 -184 -126.5 -300t-331.5 -116h-277v-522h-217zM387 715h272q114 0 177 61t63 160q0 101 -63 162t-177 61h-272v-444z" />
<glyph unicode="Q" horiz-adv-x="1597" d="M88 676q0 194 95 354.5t257.5 252t356.5 91.5q193 0 356 -91.5t258.5 -252t95.5 -354.5q0 -173 -76 -319t-208 -242q139 -184 317 -273.5t414 -89.5q52 0 192 8v-172q-121 -22 -227 -22q-270 0 -494 115.5t-381 338.5q-116 -43 -247 -43q-195 0 -357.5 91.5t-257 252.5 t-94.5 355zM313 678q0 -218 137.5 -360t348.5 -142q208 0 346.5 142t138.5 358t-138.5 358t-348.5 142q-209 0 -346.5 -141.5t-137.5 -356.5z" />
<glyph unicode="R" horiz-adv-x="1292" d="M170 0v1352h494q205 0 331.5 -114.5t126.5 -299.5q0 -133 -69 -234t-191 -147l406 -557h-248l-385 522h-248v-522h-217zM387 715h272q113 0 176.5 61t63.5 160q0 100 -63.5 161.5t-176.5 61.5h-272v-444z" />
<glyph unicode="S" horiz-adv-x="1144" d="M74 270l153 117q148 -215 355 -215q105 0 169 50.5t64 137.5q0 38 -13 67.5t-43.5 54t-60 40.5t-82.5 41l-149 70q-69 32 -119.5 63.5t-98 76.5t-72.5 104t-25 131q0 163 123 264.5t303 101.5q144 0 258 -66t178 -175l-152 -117q-110 164 -284 164q-87 0 -146 -42.5 t-59 -121.5q0 -37 12 -64.5t42 -51.5t56 -38t78 -39l152 -69q164 -75 243.5 -163.5t79.5 -221.5q0 -177 -127.5 -284.5t-324.5 -107.5q-166 0 -299 78.5t-211 214.5z" />
<glyph unicode="T" horiz-adv-x="1193" d="M33 1157v195h1128v-195h-456v-1157h-218v1157h-454z" />
<glyph unicode="U" horiz-adv-x="1421" d="M156 547v805h217v-820q0 -172 95 -264t245 -92q148 0 242 92t94 264v820h217v-805q0 -176 -73 -306.5t-197.5 -197t-282.5 -66.5q-162 0 -287 66.5t-197.5 197t-72.5 306.5z" />
<glyph unicode="V" horiz-adv-x="1355" d="M45 1352h244l389 -940l389 940h244l-596 -1375h-74z" />
<glyph unicode="W" horiz-adv-x="2152" d="M74 1352h239l338 -914l387 936h76l389 -936l338 914h238l-527 -1375h-71l-404 959l-403 -959h-74z" />
<glyph unicode="X" horiz-adv-x="1243" d="M45 0l457 690l-428 662h250l299 -478l295 478h247l-420 -662l451 -690h-248l-327 504l-326 -504h-250z" />
<glyph unicode="Y" horiz-adv-x="1269" d="M59 1352h242l334 -588l336 588h239l-467 -807v-545h-217v545z" />
<glyph unicode="Z" horiz-adv-x="1204" d="M53 0v59l750 1098h-662v195h1000v-60l-752 -1097h754v-195h-1090z" />
<glyph unicode="[" d="M129 154v292q61 9 76 9q67 0 96 -37.5t29 -116.5t-29.5 -115t-97.5 -36q-47 0 -74 4zM158 780q0 53 33.5 91t93.5 38q39 0 78 -21t69.5 -55t58.5 -74.5t48 -81.5t35 -75t22 -55l8 -21q-117 148 -319 148q-49 0 -88 30t-39 76zM188 201q4 -2 19 -2q37 0 50 25t13 77 q0 54 -13 78t-50 24q-13 0 -19 -2v-200zM377 154v297h155v-52h-96v-69h82v-49h-82v-78h96v-49h-155zM437 1128.5q-7 46.5 24 83.5q23 23 53 34t65 3.5t64 -35.5q38 -37 48.5 -102t-2.5 -131t-31.5 -126.5t-35.5 -98.5l-18 -39q20 191 -125 330q-35 35 -42 81.5zM571 154 q3 156 15 297h80l39 -164l38 164h82q3 -45 13 -297h-60q0 108 -6 213l-41 -168h-55l-41 168h-2q-4 -140 -4 -213h-58zM647 633q3 8 9 22t25 53.5t39 75.5t50 80.5t59.5 76t66 53.5t71.5 22q49 0 79.5 -24.5t39 -51t8.5 -53.5q0 -43 -34.5 -72.5t-72.5 -34.5 q-213 -23 -340 -147zM879 301q0 81 24 117.5t84 36.5t85.5 -37t25.5 -117q0 -79 -25.5 -115t-85.5 -36t-84 35.5t-24 115.5zM938 301q0 -54 10 -78t39 -24q30 0 40.5 24t10.5 78q0 55 -10 78.5t-41 23.5q-29 0 -39 -23.5t-10 -78.5z" />
<glyph unicode="\" d="M129 154v292q61 9 76 9q67 0 96 -37.5t29 -116.5t-29.5 -115t-97.5 -36q-47 0 -74 4zM158 780q0 53 33.5 91t93.5 38q39 0 78 -21t69.5 -55t58.5 -74.5t48 -81.5t35 -75t22 -55l8 -21q-117 148 -319 148q-49 0 -88 30t-39 76zM188 201q4 -2 19 -2q37 0 50 25t13 77 q0 54 -13 78t-50 24q-13 0 -19 -2v-200zM377 154v297h155v-52h-96v-69h82v-49h-82v-78h96v-49h-155zM437 1128.5q-7 46.5 24 83.5q23 23 53 34t65 3.5t64 -35.5q38 -37 48.5 -102t-2.5 -131t-31.5 -126.5t-35.5 -98.5l-18 -39q20 191 -125 330q-35 35 -42 81.5zM571 154 q3 156 15 297h80l39 -164l38 164h82q3 -45 13 -297h-60q0 108 -6 213l-41 -168h-55l-41 168h-2q-4 -140 -4 -213h-58zM647 633q3 8 9 22t25 53.5t39 75.5t50 80.5t59.5 76t66 53.5t71.5 22q49 0 79.5 -24.5t39 -51t8.5 -53.5q0 -43 -34.5 -72.5t-72.5 -34.5 q-213 -23 -340 -147zM879 301q0 81 24 117.5t84 36.5t85.5 -37t25.5 -117q0 -79 -25.5 -115t-85.5 -36t-84 35.5t-24 115.5zM938 301q0 -54 10 -78t39 -24q30 0 40.5 24t10.5 78q0 55 -10 78.5t-41 23.5q-29 0 -39 -23.5t-10 -78.5z" />
<glyph unicode="]" d="M129 154v292q61 9 76 9q67 0 96 -37.5t29 -116.5t-29.5 -115t-97.5 -36q-47 0 -74 4zM158 780q0 53 33.5 91t93.5 38q39 0 78 -21t69.5 -55t58.5 -74.5t48 -81.5t35 -75t22 -55l8 -21q-117 148 -319 148q-49 0 -88 30t-39 76zM188 201q4 -2 19 -2q37 0 50 25t13 77 q0 54 -13 78t-50 24q-13 0 -19 -2v-200zM377 154v297h155v-52h-96v-69h82v-49h-82v-78h96v-49h-155zM437 1128.5q-7 46.5 24 83.5q23 23 53 34t65 3.5t64 -35.5q38 -37 48.5 -102t-2.5 -131t-31.5 -126.5t-35.5 -98.5l-18 -39q20 191 -125 330q-35 35 -42 81.5zM571 154 q3 156 15 297h80l39 -164l38 164h82q3 -45 13 -297h-60q0 108 -6 213l-41 -168h-55l-41 168h-2q-4 -140 -4 -213h-58zM647 633q3 8 9 22t25 53.5t39 75.5t50 80.5t59.5 76t66 53.5t71.5 22q49 0 79.5 -24.5t39 -51t8.5 -53.5q0 -43 -34.5 -72.5t-72.5 -34.5 q-213 -23 -340 -147zM879 301q0 81 24 117.5t84 36.5t85.5 -37t25.5 -117q0 -79 -25.5 -115t-85.5 -36t-84 35.5t-24 115.5zM938 301q0 -54 10 -78t39 -24q30 0 40.5 24t10.5 78q0 55 -10 78.5t-41 23.5q-29 0 -39 -23.5t-10 -78.5z" />
<glyph unicode="^" d="M129 154v292q61 9 76 9q67 0 96 -37.5t29 -116.5t-29.5 -115t-97.5 -36q-47 0 -74 4zM158 780q0 53 33.5 91t93.5 38q39 0 78 -21t69.5 -55t58.5 -74.5t48 -81.5t35 -75t22 -55l8 -21q-117 148 -319 148q-49 0 -88 30t-39 76zM188 201q4 -2 19 -2q37 0 50 25t13 77 q0 54 -13 78t-50 24q-13 0 -19 -2v-200zM377 154v297h155v-52h-96v-69h82v-49h-82v-78h96v-49h-155zM437 1128.5q-7 46.5 24 83.5q23 23 53 34t65 3.5t64 -35.5q38 -37 48.5 -102t-2.5 -131t-31.5 -126.5t-35.5 -98.5l-18 -39q20 191 -125 330q-35 35 -42 81.5zM571 154 q3 156 15 297h80l39 -164l38 164h82q3 -45 13 -297h-60q0 108 -6 213l-41 -168h-55l-41 168h-2q-4 -140 -4 -213h-58zM647 633q3 8 9 22t25 53.5t39 75.5t50 80.5t59.5 76t66 53.5t71.5 22q49 0 79.5 -24.5t39 -51t8.5 -53.5q0 -43 -34.5 -72.5t-72.5 -34.5 q-213 -23 -340 -147zM879 301q0 81 24 117.5t84 36.5t85.5 -37t25.5 -117q0 -79 -25.5 -115t-85.5 -36t-84 35.5t-24 115.5zM938 301q0 -54 10 -78t39 -24q30 0 40.5 24t10.5 78q0 55 -10 78.5t-41 23.5q-29 0 -39 -23.5t-10 -78.5z" />
<glyph unicode="_" d="M129 154v292q61 9 76 9q67 0 96 -37.5t29 -116.5t-29.5 -115t-97.5 -36q-47 0 -74 4zM158 780q0 53 33.5 91t93.5 38q39 0 78 -21t69.5 -55t58.5 -74.5t48 -81.5t35 -75t22 -55l8 -21q-117 148 -319 148q-49 0 -88 30t-39 76zM188 201q4 -2 19 -2q37 0 50 25t13 77 q0 54 -13 78t-50 24q-13 0 -19 -2v-200zM377 154v297h155v-52h-96v-69h82v-49h-82v-78h96v-49h-155zM437 1128.5q-7 46.5 24 83.5q23 23 53 34t65 3.5t64 -35.5q38 -37 48.5 -102t-2.5 -131t-31.5 -126.5t-35.5 -98.5l-18 -39q20 191 -125 330q-35 35 -42 81.5zM571 154 q3 156 15 297h80l39 -164l38 164h82q3 -45 13 -297h-60q0 108 -6 213l-41 -168h-55l-41 168h-2q-4 -140 -4 -213h-58zM647 633q3 8 9 22t25 53.5t39 75.5t50 80.5t59.5 76t66 53.5t71.5 22q49 0 79.5 -24.5t39 -51t8.5 -53.5q0 -43 -34.5 -72.5t-72.5 -34.5 q-213 -23 -340 -147zM879 301q0 81 24 117.5t84 36.5t85.5 -37t25.5 -117q0 -79 -25.5 -115t-85.5 -36t-84 35.5t-24 115.5zM938 301q0 -54 10 -78t39 -24q30 0 40.5 24t10.5 78q0 55 -10 78.5t-41 23.5q-29 0 -39 -23.5t-10 -78.5z" />
<glyph unicode="`" d="M129 154v292q61 9 76 9q67 0 96 -37.5t29 -116.5t-29.5 -115t-97.5 -36q-47 0 -74 4zM158 780q0 53 33.5 91t93.5 38q39 0 78 -21t69.5 -55t58.5 -74.5t48 -81.5t35 -75t22 -55l8 -21q-117 148 -319 148q-49 0 -88 30t-39 76zM188 201q4 -2 19 -2q37 0 50 25t13 77 q0 54 -13 78t-50 24q-13 0 -19 -2v-200zM377 154v297h155v-52h-96v-69h82v-49h-82v-78h96v-49h-155zM437 1128.5q-7 46.5 24 83.5q23 23 53 34t65 3.5t64 -35.5q38 -37 48.5 -102t-2.5 -131t-31.5 -126.5t-35.5 -98.5l-18 -39q20 191 -125 330q-35 35 -42 81.5zM571 154 q3 156 15 297h80l39 -164l38 164h82q3 -45 13 -297h-60q0 108 -6 213l-41 -168h-55l-41 168h-2q-4 -140 -4 -213h-58zM647 633q3 8 9 22t25 53.5t39 75.5t50 80.5t59.5 76t66 53.5t71.5 22q49 0 79.5 -24.5t39 -51t8.5 -53.5q0 -43 -34.5 -72.5t-72.5 -34.5 q-213 -23 -340 -147zM879 301q0 81 24 117.5t84 36.5t85.5 -37t25.5 -117q0 -79 -25.5 -115t-85.5 -36t-84 35.5t-24 115.5zM938 301q0 -54 10 -78t39 -24q30 0 40.5 24t10.5 78q0 55 -10 78.5t-41 23.5q-29 0 -39 -23.5t-10 -78.5z" />
<glyph unicode="a" horiz-adv-x="1097" d="M82 268q0 132 101 209.5t270 77.5h284v66q0 104 -56 159.5t-159 55.5q-84 0 -149 -37.5t-129 -112.5l-125 127q152 215 424 215q187 0 299 -108t112 -312v-608h-200v113q-114 -136 -322 -136q-158 0 -254 80t-96 211zM301 276q0 -64 49.5 -98.5t126.5 -34.5 q107 0 183.5 68.5t76.5 169.5v18h-258q-178 0 -178 -123z" />
<glyph unicode="b" horiz-adv-x="1292" d="M156 0v1536h215v-653q57 69 144.5 107t191.5 38q214 0 353.5 -150t139.5 -376q0 -225 -139 -375t-352 -150q-110 0 -203 42.5t-150 119.5v-139h-200zM369 502q0 -83 26 -147.5t69.5 -103t96.5 -58t111 -19.5q132 0 219.5 92.5t87.5 237.5q0 144 -88 235.5t-219 91.5 q-59 0 -112 -20t-96.5 -59t-69 -103.5t-25.5 -146.5z" />
<glyph unicode="c" horiz-adv-x="1130" d="M92 504q0 145 71 265.5t193.5 189.5t268.5 69q139 0 248.5 -62t175.5 -171l-152 -119q-110 153 -270 153q-137 0 -226.5 -93.5t-89.5 -231.5q0 -140 89.5 -234t226.5 -94q158 0 270 152l152 -117q-68 -109 -177.5 -171.5t-246.5 -62.5q-146 0 -268.5 69.5t-193.5 190.5 t-71 267z" />
<glyph unicode="d" horiz-adv-x="1292" d="M92 502q0 225 139.5 375.5t352.5 150.5q104 0 191.5 -38t144.5 -107v653h217v-1536h-201v143q-56 -78 -148 -122t-204 -44q-214 0 -353 149.5t-139 375.5zM311 504q0 -145 88.5 -237.5t221.5 -92.5q58 0 111 19.5t96.5 58t69.5 103t26 147.5q0 82 -26 146.5t-69.5 103.5 t-96.5 59t-111 20q-132 0 -221 -91.5t-89 -235.5z" />
<glyph unicode="e" horiz-adv-x="1167" d="M92 502q0 145 68.5 266t188 190.5t263.5 69.5q201 0 333 -131.5t132 -329.5q0 -63 -16 -135h-750q22 -124 110 -194t218 -70q158 0 293 119l102 -148q-172 -162 -401 -162q-232 0 -386.5 150.5t-154.5 374.5zM315 600h547q-3 114 -77 180t-181 66q-106 0 -185 -67 t-104 -179z" />
<glyph unicode="f" horiz-adv-x="659" d="M49 819v187h144v202q0 177 95.5 264t262.5 87q77 0 139 -19v-182q-49 6 -86 6q-98 0 -147 -39.5t-49 -134.5v-184h237v-187h-237v-819h-215v819h-144z" />
<glyph unicode="g" horiz-adv-x="1298" d="M98 524q0 221 139.5 362.5t350.5 141.5q115 0 207.5 -43.5t148.5 -122.5v144h199v-902q0 -238 -137 -366.5t-367 -128.5q-282 0 -483 190l118 150q84 -69 167.5 -106.5t185.5 -37.5q138 0 219.5 73t81.5 214v72q-58 -69 -147 -106.5t-193 -37.5q-212 0 -351 141.5 t-139 362.5zM319 524q0 -140 88.5 -227.5t219.5 -87.5q81 0 147.5 32.5t111 106t44.5 178.5q0 64 -17 116.5t-46 87.5t-68 59.5t-82 35.5t-90 11q-131 0 -219.5 -86.5t-88.5 -225.5z" />
<glyph unicode="h" horiz-adv-x="1177" d="M156 0v1536h215v-631q107 123 291 123q171 0 271.5 -110t100.5 -289v-629h-215v598q0 105 -60 169t-159 64q-100 0 -164.5 -65.5t-64.5 -167.5v-598h-215z" />
<glyph unicode="i" horiz-adv-x="526" d="M117 1380q0 60 43 102t104 42q60 0 103 -42t43 -102t-43 -100.5t-103 -40.5q-62 0 -104.5 40.5t-42.5 100.5zM156 0v1006h215v-1006h-215z" />
<glyph unicode="j" horiz-adv-x="526" d="M-125 -190q58 -7 88 -7q96 0 144.5 40t48.5 134v1029h215v-1047q0 -176 -95.5 -263t-261.5 -87q-84 0 -139 18v183zM117 1380q0 60 43 102t104 42q60 0 103 -42t43 -102t-43 -100.5t-103 -40.5q-62 0 -104.5 40.5t-42.5 100.5z" />
<glyph unicode="k" horiz-adv-x="1091" d="M156 0v1536h215v-1536h-215zM377 565l393 441h266l-405 -443l440 -563h-258z" />
<glyph unicode="l" horiz-adv-x="526" d="M156 0v1536h215v-1536h-215z" />
<glyph unicode="m" horiz-adv-x="1808" d="M156 0v1006h200v-95q111 117 291 117q104 0 181.5 -42t123.5 -116q56 72 144.5 115t195.5 43q175 0 274 -109.5t99 -289.5v-629h-217v598q0 106 -56 169.5t-153 63.5t-159 -63.5t-62 -159.5v-608h-215v598q0 105 -57.5 169t-153.5 64q-98 0 -159.5 -64.5t-61.5 -168.5 v-598h-215z" />
<glyph unicode="n" horiz-adv-x="1177" d="M156 0v1006h200v-99q115 121 301 121q176 0 276.5 -109.5t100.5 -289.5v-629h-215v600q0 104 -60 169t-159 65q-100 0 -164.5 -65.5t-64.5 -168.5v-600h-215z" />
<glyph unicode="o" horiz-adv-x="1247" d="M92 504q0 145 70.5 265.5t192.5 189.5t268 69q147 0 270 -69.5t193.5 -190t70.5 -264.5q0 -108 -41.5 -205.5t-113 -168t-170.5 -112t-209 -41.5q-146 0 -268 70t-192.5 191.5t-70.5 265.5zM311 502q0 -139 89 -232.5t223 -93.5q133 0 223 94t90 232q0 141 -89.5 235 t-221.5 94q-135 0 -224.5 -94t-89.5 -235z" />
<glyph unicode="p" horiz-adv-x="1292" d="M156 -369v1375h200v-142q55 78 147.5 121t203.5 43q214 0 353.5 -149.5t139.5 -374.5q0 -227 -139.5 -377t-353.5 -150q-102 0 -189.5 38.5t-146.5 107.5v-492h-215zM369 504q0 -82 25.5 -147t69 -104t96.5 -59t112 -20q131 0 219 92t88 236q0 145 -87.5 237t-219.5 92 q-58 0 -111 -19.5t-96.5 -57.5t-69.5 -102.5t-26 -147.5z" />
<glyph unicode="q" horiz-adv-x="1292" d="M92 504q0 225 139 374.5t353 149.5q112 0 204 -44t148 -122v144h201v-1375h-217v490q-57 -69 -145 -106.5t-191 -37.5q-213 0 -352.5 150t-139.5 377zM311 502q0 -144 89 -236t221 -92q58 0 111 20t96.5 59t69.5 104t26 147q0 83 -26 147.5t-69.5 102.5t-96.5 57.5 t-111 19.5q-133 0 -221.5 -92.5t-88.5 -236.5z" />
<glyph unicode="r" horiz-adv-x="768" d="M156 0v1006h200v-132q54 69 130 105.5t163 36.5q44 0 82 -10v-191h-65q-127 0 -211 -72.5t-84 -205.5v-537h-215z" />
<glyph unicode="s" horiz-adv-x="931" d="M61 172l123 135q136 -143 283 -143q70 0 116 29t46 83q0 45 -33.5 70t-108.5 55l-102 43q-133 56 -197.5 121t-64.5 172q0 136 100 213.5t254 77.5q217 0 348 -156l-116 -133q-98 103 -236 103q-63 0 -100 -24.5t-37 -72.5q0 -38 29.5 -62.5t103.5 -55.5l96 -39 q143 -60 209 -128.5t66 -174.5q0 -146 -107 -227t-266 -81q-128 0 -233 53t-173 142z" />
<glyph unicode="t" horiz-adv-x="815" d="M41 819v187h164v264h217v-264h299v-187h-299v-473q0 -95 50 -134.5t149 -39.5q45 0 133 10v-182q-105 -23 -179 -23q-174 0 -272 87t-98 264v491h-164z" />
<glyph unicode="u" horiz-adv-x="1167" d="M145 422v584h213v-600q0 -104 65 -167t163 -63q94 0 157.5 63t63.5 167v600h215v-584q0 -200 -124 -322.5t-312 -122.5q-191 0 -316 122t-125 323z" />
<glyph unicode="v" horiz-adv-x="1124" d="M39 1006h229l295 -666l293 666h229l-485 -1029h-74z" />
<glyph unicode="w" horiz-adv-x="1748" d="M39 1006h229l264 -658l306 680h73l310 -672l260 650h229l-446 -1029h-74l-316 670l-315 -670h-74z" />
<glyph unicode="x" horiz-adv-x="1052" d="M29 0l372 522l-346 484h246l225 -332l224 332h245l-348 -486l375 -520h-246l-252 369l-250 -369h-245z" />
<glyph unicode="y" horiz-adv-x="1124" d="M39 1006h231l289 -732l297 732h229l-489 -1121q-63 -144 -152 -210t-217 -66q-84 0 -166 20v183q106 -9 119 -9q76 0 129 31.5t90 116.5l41 94z" />
<glyph unicode="z" horiz-adv-x="944" d="M45 0v59l526 760h-479v187h803v-62l-528 -758h532v-186h-854z" />
<glyph unicode="{" d="M129 154v292q61 9 76 9q67 0 96 -37.5t29 -116.5t-29.5 -115t-97.5 -36q-47 0 -74 4zM158 780q0 53 33.5 91t93.5 38q39 0 78 -21t69.5 -55t58.5 -74.5t48 -81.5t35 -75t22 -55l8 -21q-117 148 -319 148q-49 0 -88 30t-39 76zM188 201q4 -2 19 -2q37 0 50 25t13 77 q0 54 -13 78t-50 24q-13 0 -19 -2v-200zM377 154v297h155v-52h-96v-69h82v-49h-82v-78h96v-49h-155zM437 1128.5q-7 46.5 24 83.5q23 23 53 34t65 3.5t64 -35.5q38 -37 48.5 -102t-2.5 -131t-31.5 -126.5t-35.5 -98.5l-18 -39q20 191 -125 330q-35 35 -42 81.5zM571 154 q3 156 15 297h80l39 -164l38 164h82q3 -45 13 -297h-60q0 108 -6 213l-41 -168h-55l-41 168h-2q-4 -140 -4 -213h-58zM647 633q3 8 9 22t25 53.5t39 75.5t50 80.5t59.5 76t66 53.5t71.5 22q49 0 79.5 -24.5t39 -51t8.5 -53.5q0 -43 -34.5 -72.5t-72.5 -34.5 q-213 -23 -340 -147zM879 301q0 81 24 117.5t84 36.5t85.5 -37t25.5 -117q0 -79 -25.5 -115t-85.5 -36t-84 35.5t-24 115.5zM938 301q0 -54 10 -78t39 -24q30 0 40.5 24t10.5 78q0 55 -10 78.5t-41 23.5q-29 0 -39 -23.5t-10 -78.5z" />
<glyph unicode="|" d="M129 154v292q61 9 76 9q67 0 96 -37.5t29 -116.5t-29.5 -115t-97.5 -36q-47 0 -74 4zM158 780q0 53 33.5 91t93.5 38q39 0 78 -21t69.5 -55t58.5 -74.5t48 -81.5t35 -75t22 -55l8 -21q-117 148 -319 148q-49 0 -88 30t-39 76zM188 201q4 -2 19 -2q37 0 50 25t13 77 q0 54 -13 78t-50 24q-13 0 -19 -2v-200zM377 154v297h155v-52h-96v-69h82v-49h-82v-78h96v-49h-155zM437 1128.5q-7 46.5 24 83.5q23 23 53 34t65 3.5t64 -35.5q38 -37 48.5 -102t-2.5 -131t-31.5 -126.5t-35.5 -98.5l-18 -39q20 191 -125 330q-35 35 -42 81.5zM571 154 q3 156 15 297h80l39 -164l38 164h82q3 -45 13 -297h-60q0 108 -6 213l-41 -168h-55l-41 168h-2q-4 -140 -4 -213h-58zM647 633q3 8 9 22t25 53.5t39 75.5t50 80.5t59.5 76t66 53.5t71.5 22q49 0 79.5 -24.5t39 -51t8.5 -53.5q0 -43 -34.5 -72.5t-72.5 -34.5 q-213 -23 -340 -147zM879 301q0 81 24 117.5t84 36.5t85.5 -37t25.5 -117q0 -79 -25.5 -115t-85.5 -36t-84 35.5t-24 115.5zM938 301q0 -54 10 -78t39 -24q30 0 40.5 24t10.5 78q0 55 -10 78.5t-41 23.5q-29 0 -39 -23.5t-10 -78.5z" />
<glyph unicode="}" d="M129 154v292q61 9 76 9q67 0 96 -37.5t29 -116.5t-29.5 -115t-97.5 -36q-47 0 -74 4zM158 780q0 53 33.5 91t93.5 38q39 0 78 -21t69.5 -55t58.5 -74.5t48 -81.5t35 -75t22 -55l8 -21q-117 148 -319 148q-49 0 -88 30t-39 76zM188 201q4 -2 19 -2q37 0 50 25t13 77 q0 54 -13 78t-50 24q-13 0 -19 -2v-200zM377 154v297h155v-52h-96v-69h82v-49h-82v-78h96v-49h-155zM437 1128.5q-7 46.5 24 83.5q23 23 53 34t65 3.5t64 -35.5q38 -37 48.5 -102t-2.5 -131t-31.5 -126.5t-35.5 -98.5l-18 -39q20 191 -125 330q-35 35 -42 81.5zM571 154 q3 156 15 297h80l39 -164l38 164h82q3 -45 13 -297h-60q0 108 -6 213l-41 -168h-55l-41 168h-2q-4 -140 -4 -213h-58zM647 633q3 8 9 22t25 53.5t39 75.5t50 80.5t59.5 76t66 53.5t71.5 22q49 0 79.5 -24.5t39 -51t8.5 -53.5q0 -43 -34.5 -72.5t-72.5 -34.5 q-213 -23 -340 -147zM879 301q0 81 24 117.5t84 36.5t85.5 -37t25.5 -117q0 -79 -25.5 -115t-85.5 -36t-84 35.5t-24 115.5zM938 301q0 -54 10 -78t39 -24q30 0 40.5 24t10.5 78q0 55 -10 78.5t-41 23.5q-29 0 -39 -23.5t-10 -78.5z" />
<glyph unicode="~" d="M129 154v292q61 9 76 9q67 0 96 -37.5t29 -116.5t-29.5 -115t-97.5 -36q-47 0 -74 4zM158 780q0 53 33.5 91t93.5 38q39 0 78 -21t69.5 -55t58.5 -74.5t48 -81.5t35 -75t22 -55l8 -21q-117 148 -319 148q-49 0 -88 30t-39 76zM188 201q4 -2 19 -2q37 0 50 25t13 77 q0 54 -13 78t-50 24q-13 0 -19 -2v-200zM377 154v297h155v-52h-96v-69h82v-49h-82v-78h96v-49h-155zM437 1128.5q-7 46.5 24 83.5q23 23 53 34t65 3.5t64 -35.5q38 -37 48.5 -102t-2.5 -131t-31.5 -126.5t-35.5 -98.5l-18 -39q20 191 -125 330q-35 35 -42 81.5zM571 154 q3 156 15 297h80l39 -164l38 164h82q3 -45 13 -297h-60q0 108 -6 213l-41 -168h-55l-41 168h-2q-4 -140 -4 -213h-58zM647 633q3 8 9 22t25 53.5t39 75.5t50 80.5t59.5 76t66 53.5t71.5 22q49 0 79.5 -24.5t39 -51t8.5 -53.5q0 -43 -34.5 -72.5t-72.5 -34.5 q-213 -23 -340 -147zM879 301q0 81 24 117.5t84 36.5t85.5 -37t25.5 -117q0 -79 -25.5 -115t-85.5 -36t-84 35.5t-24 115.5zM938 301q0 -54 10 -78t39 -24q30 0 40.5 24t10.5 78q0 55 -10 78.5t-41 23.5q-29 0 -39 -23.5t-10 -78.5z" />
<glyph unicode="&#xad;" d="M129 154v292q61 9 76 9q67 0 96 -37.5t29 -116.5t-29.5 -115t-97.5 -36q-47 0 -74 4zM158 780q0 53 33.5 91t93.5 38q39 0 78 -21t69.5 -55t58.5 -74.5t48 -81.5t35 -75t22 -55l8 -21q-117 148 -319 148q-49 0 -88 30t-39 76zM188 201q4 -2 19 -2q37 0 50 25t13 77 q0 54 -13 78t-50 24q-13 0 -19 -2v-200zM377 154v297h155v-52h-96v-69h82v-49h-82v-78h96v-49h-155zM437 1128.5q-7 46.5 24 83.5q23 23 53 34t65 3.5t64 -35.5q38 -37 48.5 -102t-2.5 -131t-31.5 -126.5t-35.5 -98.5l-18 -39q20 191 -125 330q-35 35 -42 81.5zM571 154 q3 156 15 297h80l39 -164l38 164h82q3 -45 13 -297h-60q0 108 -6 213l-41 -168h-55l-41 168h-2q-4 -140 -4 -213h-58zM647 633q3 8 9 22t25 53.5t39 75.5t50 80.5t59.5 76t66 53.5t71.5 22q49 0 79.5 -24.5t39 -51t8.5 -53.5q0 -43 -34.5 -72.5t-72.5 -34.5 q-213 -23 -340 -147zM879 301q0 81 24 117.5t84 36.5t85.5 -37t25.5 -117q0 -79 -25.5 -115t-85.5 -36t-84 35.5t-24 115.5zM938 301q0 -54 10 -78t39 -24q30 0 40.5 24t10.5 78q0 55 -10 78.5t-41 23.5q-29 0 -39 -23.5t-10 -78.5z" />
<glyph unicode="&#x2000;" horiz-adv-x="779" />
<glyph unicode="&#x2001;" horiz-adv-x="1559" />
<glyph unicode="&#x2002;" horiz-adv-x="779" />
<glyph unicode="&#x2003;" horiz-adv-x="1559" />
<glyph unicode="&#x2004;" horiz-adv-x="519" />
<glyph unicode="&#x2005;" horiz-adv-x="389" />
<glyph unicode="&#x2006;" horiz-adv-x="259" />
<glyph unicode="&#x2007;" horiz-adv-x="259" />
<glyph unicode="&#x2008;" horiz-adv-x="194" />
<glyph unicode="&#x2009;" horiz-adv-x="311" />
<glyph unicode="&#x200a;" horiz-adv-x="86" />
<glyph unicode="&#x2010;" d="M129 154v292q61 9 76 9q67 0 96 -37.5t29 -116.5t-29.5 -115t-97.5 -36q-47 0 -74 4zM158 780q0 53 33.5 91t93.5 38q39 0 78 -21t69.5 -55t58.5 -74.5t48 -81.5t35 -75t22 -55l8 -21q-117 148 -319 148q-49 0 -88 30t-39 76zM188 201q4 -2 19 -2q37 0 50 25t13 77 q0 54 -13 78t-50 24q-13 0 -19 -2v-200zM377 154v297h155v-52h-96v-69h82v-49h-82v-78h96v-49h-155zM437 1128.5q-7 46.5 24 83.5q23 23 53 34t65 3.5t64 -35.5q38 -37 48.5 -102t-2.5 -131t-31.5 -126.5t-35.5 -98.5l-18 -39q20 191 -125 330q-35 35 -42 81.5zM571 154 q3 156 15 297h80l39 -164l38 164h82q3 -45 13 -297h-60q0 108 -6 213l-41 -168h-55l-41 168h-2q-4 -140 -4 -213h-58zM647 633q3 8 9 22t25 53.5t39 75.5t50 80.5t59.5 76t66 53.5t71.5 22q49 0 79.5 -24.5t39 -51t8.5 -53.5q0 -43 -34.5 -72.5t-72.5 -34.5 q-213 -23 -340 -147zM879 301q0 81 24 117.5t84 36.5t85.5 -37t25.5 -117q0 -79 -25.5 -115t-85.5 -36t-84 35.5t-24 115.5zM938 301q0 -54 10 -78t39 -24q30 0 40.5 24t10.5 78q0 55 -10 78.5t-41 23.5q-29 0 -39 -23.5t-10 -78.5z" />
<glyph unicode="&#x2011;" d="M129 154v292q61 9 76 9q67 0 96 -37.5t29 -116.5t-29.5 -115t-97.5 -36q-47 0 -74 4zM158 780q0 53 33.5 91t93.5 38q39 0 78 -21t69.5 -55t58.5 -74.5t48 -81.5t35 -75t22 -55l8 -21q-117 148 -319 148q-49 0 -88 30t-39 76zM188 201q4 -2 19 -2q37 0 50 25t13 77 q0 54 -13 78t-50 24q-13 0 -19 -2v-200zM377 154v297h155v-52h-96v-69h82v-49h-82v-78h96v-49h-155zM437 1128.5q-7 46.5 24 83.5q23 23 53 34t65 3.5t64 -35.5q38 -37 48.5 -102t-2.5 -131t-31.5 -126.5t-35.5 -98.5l-18 -39q20 191 -125 330q-35 35 -42 81.5zM571 154 q3 156 15 297h80l39 -164l38 164h82q3 -45 13 -297h-60q0 108 -6 213l-41 -168h-55l-41 168h-2q-4 -140 -4 -213h-58zM647 633q3 8 9 22t25 53.5t39 75.5t50 80.5t59.5 76t66 53.5t71.5 22q49 0 79.5 -24.5t39 -51t8.5 -53.5q0 -43 -34.5 -72.5t-72.5 -34.5 q-213 -23 -340 -147zM879 301q0 81 24 117.5t84 36.5t85.5 -37t25.5 -117q0 -79 -25.5 -115t-85.5 -36t-84 35.5t-24 115.5zM938 301q0 -54 10 -78t39 -24q30 0 40.5 24t10.5 78q0 55 -10 78.5t-41 23.5q-29 0 -39 -23.5t-10 -78.5z" />
<glyph unicode="&#x2012;" d="M129 154v292q61 9 76 9q67 0 96 -37.5t29 -116.5t-29.5 -115t-97.5 -36q-47 0 -74 4zM158 780q0 53 33.5 91t93.5 38q39 0 78 -21t69.5 -55t58.5 -74.5t48 -81.5t35 -75t22 -55l8 -21q-117 148 -319 148q-49 0 -88 30t-39 76zM188 201q4 -2 19 -2q37 0 50 25t13 77 q0 54 -13 78t-50 24q-13 0 -19 -2v-200zM377 154v297h155v-52h-96v-69h82v-49h-82v-78h96v-49h-155zM437 1128.5q-7 46.5 24 83.5q23 23 53 34t65 3.5t64 -35.5q38 -37 48.5 -102t-2.5 -131t-31.5 -126.5t-35.5 -98.5l-18 -39q20 191 -125 330q-35 35 -42 81.5zM571 154 q3 156 15 297h80l39 -164l38 164h82q3 -45 13 -297h-60q0 108 -6 213l-41 -168h-55l-41 168h-2q-4 -140 -4 -213h-58zM647 633q3 8 9 22t25 53.5t39 75.5t50 80.5t59.5 76t66 53.5t71.5 22q49 0 79.5 -24.5t39 -51t8.5 -53.5q0 -43 -34.5 -72.5t-72.5 -34.5 q-213 -23 -340 -147zM879 301q0 81 24 117.5t84 36.5t85.5 -37t25.5 -117q0 -79 -25.5 -115t-85.5 -36t-84 35.5t-24 115.5zM938 301q0 -54 10 -78t39 -24q30 0 40.5 24t10.5 78q0 55 -10 78.5t-41 23.5q-29 0 -39 -23.5t-10 -78.5z" />
<glyph unicode="&#x2013;" horiz-adv-x="1279" d="M129 154v292q64 9 80 9q71 0 101.5 -37.5t30.5 -116.5t-31 -115t-103 -36q-49 0 -78 4zM160 780q0 53 35 91t99 38q41 0 82 -21t73.5 -55t62 -74.5t50.5 -81.5t37 -75t24 -55l8 -21q-124 148 -337 148q-52 0 -93 30t-41 76zM191 201q5 -2 20 -2q40 0 53.5 25t13.5 77 q0 54 -13.5 78t-53.5 24q-13 0 -20 -2v-200zM391 154v297h164v-52h-102v-69h87v-49h-87v-78h102v-49h-164zM454.5 1128.5q-7.5 46.5 25.5 83.5q24 23 56 34t69 3.5t67 -35.5q40 -37 51.5 -102t-2.5 -131t-33.5 -126.5t-37.5 -98.5l-19 -39q21 191 -132 330 q-37 35 -44.5 81.5zM596 154q3 156 16 297h84l42 -164l40 164h87q3 -45 13 -297h-63q0 108 -7 213l-43 -168h-58l-43 168h-2q-5 -140 -5 -213h-61zM676 633q4 8 10 22t26 53.5t41.5 75.5t53 80.5t62.5 76t70 53.5t76 22q51 0 83.5 -24.5t41.5 -51t9 -53.5q0 -43 -36.5 -72.5 t-76.5 -34.5q-225 -23 -360 -147zM922 301q0 81 25 117.5t88.5 36.5t90.5 -37t27 -117q0 -79 -27 -115t-90.5 -36t-88.5 35.5t-25 115.5zM984 301q0 -54 10.5 -78t41.5 -24t42.5 24t11.5 78q0 55 -11 78.5t-43 23.5q-31 0 -41.5 -23.5t-10.5 -78.5z" />
<glyph unicode="&#x2014;" horiz-adv-x="2303" d="M129 154v292q129 9 161 9q141 0 202.5 -37.5t61.5 -116.5t-62.5 -115t-206.5 -36q-99 0 -156 4zM190 780q0 53 71 91t198 38q82 0 164.5 -21t147 -55t123.5 -74.5t101.5 -81.5t74 -75t46.5 -55l17 -21q-247 148 -674 148q-104 0 -186.5 30t-82.5 76zM254 201q8 -2 40 -2 q78 0 105.5 25t27.5 77q0 54 -27.5 78t-105.5 24q-28 0 -40 -2v-200zM653 154v297h328v-52h-203v-69h173v-49h-173v-78h203v-49h-328zM780 1128.5q-15 46.5 51 83.5q48 23 111.5 34t137.5 3.5t135 -35.5q81 -37 103 -102t-5.5 -131t-66.5 -126.5t-75 -98.5l-38 -39 q42 191 -264 330q-74 35 -89 81.5zM1063 154q7 156 32 297h169l82 -164l81 164h173q6 -45 27 -297h-126q0 108 -13 213l-87 -168h-116l-87 168h-4q-8 -140 -8 -213h-123zM1224 633q6 8 19 22t53 53.5t82 75.5t105.5 80.5t126 76t139.5 53.5t151 22q104 0 168.5 -24.5 t82.5 -51t18 -53.5q0 -43 -73 -72.5t-154 -34.5q-450 -23 -718 -147zM1714 301q0 81 51 117.5t177.5 36.5t180.5 -37t54 -117q0 -79 -54 -115t-180.5 -36t-177.5 35.5t-51 115.5zM1839 301q0 -54 21 -78t82 -24q64 0 86 24t22 78q0 55 -21 78.5t-87 23.5q-61 0 -82 -23.5 t-21 -78.5z" />
<glyph unicode="&#x202f;" horiz-adv-x="311" />
<glyph unicode="&#x205f;" horiz-adv-x="389" />
<glyph unicode="&#x25fc;" horiz-adv-x="1003" d="M0 0v1004h1004v-1004h-1004z" />
</font>
</defs>
</svg>
