<?xml version="1.0" standalone="no"?>
<!DOCTYPE svg PUBLIC "-//W3C//DTD SVG 1.1//EN" "http://www.w3.org/Graphics/SVG/1.1/DTD/svg11.dtd" >
<svg xmlns="http://www.w3.org/2000/svg" xmlns:xlink="http://www.w3.org/1999/xlink" version="1.1">
<metadata></metadata>
<defs>
<font id="fontspring_demo_-_cera_proRg" horiz-adv-x="1224" >
<font-face units-per-em="2048" ascent="1655" descent="-393" />
<missing-glyph horiz-adv-x="573" />
<glyph horiz-adv-x="0" />
<glyph horiz-adv-x="682" />
<glyph unicode=" "  horiz-adv-x="573" />
<glyph unicode="&#x09;" horiz-adv-x="573" />
<glyph unicode="&#xa0;" horiz-adv-x="573" />
<glyph unicode="!" d="M129 154v292q61 9 76 9q67 0 96 -37.5t29 -116.5t-29.5 -115t-97.5 -36q-47 0 -74 4zM158 780q0 53 33.5 91t93.5 38q39 0 78 -21t69.5 -55t58.5 -74.5t48 -81.5t35 -75t22 -55l8 -21q-117 148 -319 148q-49 0 -88 30t-39 76zM188 201q4 -2 19 -2q37 0 50 25t13 77 q0 54 -13 78t-50 24q-13 0 -19 -2v-200zM377 154v297h155v-52h-96v-69h82v-49h-82v-78h96v-49h-155zM437 1128.5q-7 46.5 24 83.5q23 23 53 34t65 3.5t64 -35.5q38 -37 48.5 -102t-2.5 -131t-31.5 -126.5t-35.5 -98.5l-18 -39q20 191 -125 330q-35 35 -42 81.5zM571 154 q3 156 15 297h80l39 -164l38 164h82q3 -45 13 -297h-60q0 108 -6 213l-41 -168h-55l-41 168h-2q-4 -140 -4 -213h-58zM647 633q3 8 9 22t25 53.5t39 75.5t50 80.5t59.5 76t66 53.5t71.5 22q49 0 79.5 -24.5t39 -51t8.5 -53.5q0 -43 -34.5 -72.5t-72.5 -34.5 q-213 -23 -340 -147zM879 301q0 81 24 117.5t84 36.5t85.5 -37t25.5 -117q0 -79 -25.5 -115t-85.5 -36t-84 35.5t-24 115.5zM938 301q0 -54 10 -78t39 -24q30 0 40.5 24t10.5 78q0 55 -10 78.5t-41 23.5q-29 0 -39 -23.5t-10 -78.5z" />
<glyph unicode="&#x22;" d="M129 154v292q61 9 76 9q67 0 96 -37.5t29 -116.5t-29.5 -115t-97.5 -36q-47 0 -74 4zM158 780q0 53 33.5 91t93.5 38q39 0 78 -21t69.5 -55t58.5 -74.5t48 -81.5t35 -75t22 -55l8 -21q-117 148 -319 148q-49 0 -88 30t-39 76zM188 201q4 -2 19 -2q37 0 50 25t13 77 q0 54 -13 78t-50 24q-13 0 -19 -2v-200zM377 154v297h155v-52h-96v-69h82v-49h-82v-78h96v-49h-155zM437 1128.5q-7 46.5 24 83.5q23 23 53 34t65 3.5t64 -35.5q38 -37 48.5 -102t-2.5 -131t-31.5 -126.5t-35.5 -98.5l-18 -39q20 191 -125 330q-35 35 -42 81.5zM571 154 q3 156 15 297h80l39 -164l38 164h82q3 -45 13 -297h-60q0 108 -6 213l-41 -168h-55l-41 168h-2q-4 -140 -4 -213h-58zM647 633q3 8 9 22t25 53.5t39 75.5t50 80.5t59.5 76t66 53.5t71.5 22q49 0 79.5 -24.5t39 -51t8.5 -53.5q0 -43 -34.5 -72.5t-72.5 -34.5 q-213 -23 -340 -147zM879 301q0 81 24 117.5t84 36.5t85.5 -37t25.5 -117q0 -79 -25.5 -115t-85.5 -36t-84 35.5t-24 115.5zM938 301q0 -54 10 -78t39 -24q30 0 40.5 24t10.5 78q0 55 -10 78.5t-41 23.5q-29 0 -39 -23.5t-10 -78.5z" />
<glyph unicode="#" d="M129 154v292q61 9 76 9q67 0 96 -37.5t29 -116.5t-29.5 -115t-97.5 -36q-47 0 -74 4zM158 780q0 53 33.5 91t93.5 38q39 0 78 -21t69.5 -55t58.5 -74.5t48 -81.5t35 -75t22 -55l8 -21q-117 148 -319 148q-49 0 -88 30t-39 76zM188 201q4 -2 19 -2q37 0 50 25t13 77 q0 54 -13 78t-50 24q-13 0 -19 -2v-200zM377 154v297h155v-52h-96v-69h82v-49h-82v-78h96v-49h-155zM437 1128.5q-7 46.5 24 83.5q23 23 53 34t65 3.5t64 -35.5q38 -37 48.5 -102t-2.5 -131t-31.5 -126.5t-35.5 -98.5l-18 -39q20 191 -125 330q-35 35 -42 81.5zM571 154 q3 156 15 297h80l39 -164l38 164h82q3 -45 13 -297h-60q0 108 -6 213l-41 -168h-55l-41 168h-2q-4 -140 -4 -213h-58zM647 633q3 8 9 22t25 53.5t39 75.5t50 80.5t59.5 76t66 53.5t71.5 22q49 0 79.5 -24.5t39 -51t8.5 -53.5q0 -43 -34.5 -72.5t-72.5 -34.5 q-213 -23 -340 -147zM879 301q0 81 24 117.5t84 36.5t85.5 -37t25.5 -117q0 -79 -25.5 -115t-85.5 -36t-84 35.5t-24 115.5zM938 301q0 -54 10 -78t39 -24q30 0 40.5 24t10.5 78q0 55 -10 78.5t-41 23.5q-29 0 -39 -23.5t-10 -78.5z" />
<glyph unicode="$" d="M129 154v292q61 9 76 9q67 0 96 -37.5t29 -116.5t-29.5 -115t-97.5 -36q-47 0 -74 4zM158 780q0 53 33.5 91t93.5 38q39 0 78 -21t69.5 -55t58.5 -74.5t48 -81.5t35 -75t22 -55l8 -21q-117 148 -319 148q-49 0 -88 30t-39 76zM188 201q4 -2 19 -2q37 0 50 25t13 77 q0 54 -13 78t-50 24q-13 0 -19 -2v-200zM377 154v297h155v-52h-96v-69h82v-49h-82v-78h96v-49h-155zM437 1128.5q-7 46.5 24 83.5q23 23 53 34t65 3.5t64 -35.5q38 -37 48.5 -102t-2.5 -131t-31.5 -126.5t-35.5 -98.5l-18 -39q20 191 -125 330q-35 35 -42 81.5zM571 154 q3 156 15 297h80l39 -164l38 164h82q3 -45 13 -297h-60q0 108 -6 213l-41 -168h-55l-41 168h-2q-4 -140 -4 -213h-58zM647 633q3 8 9 22t25 53.5t39 75.5t50 80.5t59.5 76t66 53.5t71.5 22q49 0 79.5 -24.5t39 -51t8.5 -53.5q0 -43 -34.5 -72.5t-72.5 -34.5 q-213 -23 -340 -147zM879 301q0 81 24 117.5t84 36.5t85.5 -37t25.5 -117q0 -79 -25.5 -115t-85.5 -36t-84 35.5t-24 115.5zM938 301q0 -54 10 -78t39 -24q30 0 40.5 24t10.5 78q0 55 -10 78.5t-41 23.5q-29 0 -39 -23.5t-10 -78.5z" />
<glyph unicode="%" d="M129 154v292q61 9 76 9q67 0 96 -37.5t29 -116.5t-29.5 -115t-97.5 -36q-47 0 -74 4zM158 780q0 53 33.5 91t93.5 38q39 0 78 -21t69.5 -55t58.5 -74.5t48 -81.5t35 -75t22 -55l8 -21q-117 148 -319 148q-49 0 -88 30t-39 76zM188 201q4 -2 19 -2q37 0 50 25t13 77 q0 54 -13 78t-50 24q-13 0 -19 -2v-200zM377 154v297h155v-52h-96v-69h82v-49h-82v-78h96v-49h-155zM437 1128.5q-7 46.5 24 83.5q23 23 53 34t65 3.5t64 -35.5q38 -37 48.5 -102t-2.5 -131t-31.5 -126.5t-35.5 -98.5l-18 -39q20 191 -125 330q-35 35 -42 81.5zM571 154 q3 156 15 297h80l39 -164l38 164h82q3 -45 13 -297h-60q0 108 -6 213l-41 -168h-55l-41 168h-2q-4 -140 -4 -213h-58zM647 633q3 8 9 22t25 53.5t39 75.5t50 80.5t59.5 76t66 53.5t71.5 22q49 0 79.5 -24.5t39 -51t8.5 -53.5q0 -43 -34.5 -72.5t-72.5 -34.5 q-213 -23 -340 -147zM879 301q0 81 24 117.5t84 36.5t85.5 -37t25.5 -117q0 -79 -25.5 -115t-85.5 -36t-84 35.5t-24 115.5zM938 301q0 -54 10 -78t39 -24q30 0 40.5 24t10.5 78q0 55 -10 78.5t-41 23.5q-29 0 -39 -23.5t-10 -78.5z" />
<glyph unicode="&#x26;" d="M129 154v292q61 9 76 9q67 0 96 -37.5t29 -116.5t-29.5 -115t-97.5 -36q-47 0 -74 4zM158 780q0 53 33.5 91t93.5 38q39 0 78 -21t69.5 -55t58.5 -74.5t48 -81.5t35 -75t22 -55l8 -21q-117 148 -319 148q-49 0 -88 30t-39 76zM188 201q4 -2 19 -2q37 0 50 25t13 77 q0 54 -13 78t-50 24q-13 0 -19 -2v-200zM377 154v297h155v-52h-96v-69h82v-49h-82v-78h96v-49h-155zM437 1128.5q-7 46.5 24 83.5q23 23 53 34t65 3.5t64 -35.5q38 -37 48.5 -102t-2.5 -131t-31.5 -126.5t-35.5 -98.5l-18 -39q20 191 -125 330q-35 35 -42 81.5zM571 154 q3 156 15 297h80l39 -164l38 164h82q3 -45 13 -297h-60q0 108 -6 213l-41 -168h-55l-41 168h-2q-4 -140 -4 -213h-58zM647 633q3 8 9 22t25 53.5t39 75.5t50 80.5t59.5 76t66 53.5t71.5 22q49 0 79.5 -24.5t39 -51t8.5 -53.5q0 -43 -34.5 -72.5t-72.5 -34.5 q-213 -23 -340 -147zM879 301q0 81 24 117.5t84 36.5t85.5 -37t25.5 -117q0 -79 -25.5 -115t-85.5 -36t-84 35.5t-24 115.5zM938 301q0 -54 10 -78t39 -24q30 0 40.5 24t10.5 78q0 55 -10 78.5t-41 23.5q-29 0 -39 -23.5t-10 -78.5z" />
<glyph unicode="'" d="M129 154v292q61 9 76 9q67 0 96 -37.5t29 -116.5t-29.5 -115t-97.5 -36q-47 0 -74 4zM158 780q0 53 33.5 91t93.5 38q39 0 78 -21t69.5 -55t58.5 -74.5t48 -81.5t35 -75t22 -55l8 -21q-117 148 -319 148q-49 0 -88 30t-39 76zM188 201q4 -2 19 -2q37 0 50 25t13 77 q0 54 -13 78t-50 24q-13 0 -19 -2v-200zM377 154v297h155v-52h-96v-69h82v-49h-82v-78h96v-49h-155zM437 1128.5q-7 46.5 24 83.5q23 23 53 34t65 3.5t64 -35.5q38 -37 48.5 -102t-2.5 -131t-31.5 -126.5t-35.5 -98.5l-18 -39q20 191 -125 330q-35 35 -42 81.5zM571 154 q3 156 15 297h80l39 -164l38 164h82q3 -45 13 -297h-60q0 108 -6 213l-41 -168h-55l-41 168h-2q-4 -140 -4 -213h-58zM647 633q3 8 9 22t25 53.5t39 75.5t50 80.5t59.5 76t66 53.5t71.5 22q49 0 79.5 -24.5t39 -51t8.5 -53.5q0 -43 -34.5 -72.5t-72.5 -34.5 q-213 -23 -340 -147zM879 301q0 81 24 117.5t84 36.5t85.5 -37t25.5 -117q0 -79 -25.5 -115t-85.5 -36t-84 35.5t-24 115.5zM938 301q0 -54 10 -78t39 -24q30 0 40.5 24t10.5 78q0 55 -10 78.5t-41 23.5q-29 0 -39 -23.5t-10 -78.5z" />
<glyph unicode="(" d="M129 154v292q61 9 76 9q67 0 96 -37.5t29 -116.5t-29.5 -115t-97.5 -36q-47 0 -74 4zM158 780q0 53 33.5 91t93.5 38q39 0 78 -21t69.5 -55t58.5 -74.5t48 -81.5t35 -75t22 -55l8 -21q-117 148 -319 148q-49 0 -88 30t-39 76zM188 201q4 -2 19 -2q37 0 50 25t13 77 q0 54 -13 78t-50 24q-13 0 -19 -2v-200zM377 154v297h155v-52h-96v-69h82v-49h-82v-78h96v-49h-155zM437 1128.5q-7 46.5 24 83.5q23 23 53 34t65 3.5t64 -35.5q38 -37 48.5 -102t-2.5 -131t-31.5 -126.5t-35.5 -98.5l-18 -39q20 191 -125 330q-35 35 -42 81.5zM571 154 q3 156 15 297h80l39 -164l38 164h82q3 -45 13 -297h-60q0 108 -6 213l-41 -168h-55l-41 168h-2q-4 -140 -4 -213h-58zM647 633q3 8 9 22t25 53.5t39 75.5t50 80.5t59.5 76t66 53.5t71.5 22q49 0 79.5 -24.5t39 -51t8.5 -53.5q0 -43 -34.5 -72.5t-72.5 -34.5 q-213 -23 -340 -147zM879 301q0 81 24 117.5t84 36.5t85.5 -37t25.5 -117q0 -79 -25.5 -115t-85.5 -36t-84 35.5t-24 115.5zM938 301q0 -54 10 -78t39 -24q30 0 40.5 24t10.5 78q0 55 -10 78.5t-41 23.5q-29 0 -39 -23.5t-10 -78.5z" />
<glyph unicode=")" d="M129 154v292q61 9 76 9q67 0 96 -37.5t29 -116.5t-29.5 -115t-97.5 -36q-47 0 -74 4zM158 780q0 53 33.5 91t93.5 38q39 0 78 -21t69.5 -55t58.5 -74.5t48 -81.5t35 -75t22 -55l8 -21q-117 148 -319 148q-49 0 -88 30t-39 76zM188 201q4 -2 19 -2q37 0 50 25t13 77 q0 54 -13 78t-50 24q-13 0 -19 -2v-200zM377 154v297h155v-52h-96v-69h82v-49h-82v-78h96v-49h-155zM437 1128.5q-7 46.5 24 83.5q23 23 53 34t65 3.5t64 -35.5q38 -37 48.5 -102t-2.5 -131t-31.5 -126.5t-35.5 -98.5l-18 -39q20 191 -125 330q-35 35 -42 81.5zM571 154 q3 156 15 297h80l39 -164l38 164h82q3 -45 13 -297h-60q0 108 -6 213l-41 -168h-55l-41 168h-2q-4 -140 -4 -213h-58zM647 633q3 8 9 22t25 53.5t39 75.5t50 80.5t59.5 76t66 53.5t71.5 22q49 0 79.5 -24.5t39 -51t8.5 -53.5q0 -43 -34.5 -72.5t-72.5 -34.5 q-213 -23 -340 -147zM879 301q0 81 24 117.5t84 36.5t85.5 -37t25.5 -117q0 -79 -25.5 -115t-85.5 -36t-84 35.5t-24 115.5zM938 301q0 -54 10 -78t39 -24q30 0 40.5 24t10.5 78q0 55 -10 78.5t-41 23.5q-29 0 -39 -23.5t-10 -78.5z" />
<glyph unicode="*" d="M129 154v292q61 9 76 9q67 0 96 -37.5t29 -116.5t-29.5 -115t-97.5 -36q-47 0 -74 4zM158 780q0 53 33.5 91t93.5 38q39 0 78 -21t69.5 -55t58.5 -74.5t48 -81.5t35 -75t22 -55l8 -21q-117 148 -319 148q-49 0 -88 30t-39 76zM188 201q4 -2 19 -2q37 0 50 25t13 77 q0 54 -13 78t-50 24q-13 0 -19 -2v-200zM377 154v297h155v-52h-96v-69h82v-49h-82v-78h96v-49h-155zM437 1128.5q-7 46.5 24 83.5q23 23 53 34t65 3.5t64 -35.5q38 -37 48.5 -102t-2.5 -131t-31.5 -126.5t-35.5 -98.5l-18 -39q20 191 -125 330q-35 35 -42 81.5zM571 154 q3 156 15 297h80l39 -164l38 164h82q3 -45 13 -297h-60q0 108 -6 213l-41 -168h-55l-41 168h-2q-4 -140 -4 -213h-58zM647 633q3 8 9 22t25 53.5t39 75.5t50 80.5t59.5 76t66 53.5t71.5 22q49 0 79.5 -24.5t39 -51t8.5 -53.5q0 -43 -34.5 -72.5t-72.5 -34.5 q-213 -23 -340 -147zM879 301q0 81 24 117.5t84 36.5t85.5 -37t25.5 -117q0 -79 -25.5 -115t-85.5 -36t-84 35.5t-24 115.5zM938 301q0 -54 10 -78t39 -24q30 0 40.5 24t10.5 78q0 55 -10 78.5t-41 23.5q-29 0 -39 -23.5t-10 -78.5z" />
<glyph unicode="+" d="M129 154v292q61 9 76 9q67 0 96 -37.5t29 -116.5t-29.5 -115t-97.5 -36q-47 0 -74 4zM158 780q0 53 33.5 91t93.5 38q39 0 78 -21t69.5 -55t58.5 -74.5t48 -81.5t35 -75t22 -55l8 -21q-117 148 -319 148q-49 0 -88 30t-39 76zM188 201q4 -2 19 -2q37 0 50 25t13 77 q0 54 -13 78t-50 24q-13 0 -19 -2v-200zM377 154v297h155v-52h-96v-69h82v-49h-82v-78h96v-49h-155zM437 1128.5q-7 46.5 24 83.5q23 23 53 34t65 3.5t64 -35.5q38 -37 48.5 -102t-2.5 -131t-31.5 -126.5t-35.5 -98.5l-18 -39q20 191 -125 330q-35 35 -42 81.5zM571 154 q3 156 15 297h80l39 -164l38 164h82q3 -45 13 -297h-60q0 108 -6 213l-41 -168h-55l-41 168h-2q-4 -140 -4 -213h-58zM647 633q3 8 9 22t25 53.5t39 75.5t50 80.5t59.5 76t66 53.5t71.5 22q49 0 79.5 -24.5t39 -51t8.5 -53.5q0 -43 -34.5 -72.5t-72.5 -34.5 q-213 -23 -340 -147zM879 301q0 81 24 117.5t84 36.5t85.5 -37t25.5 -117q0 -79 -25.5 -115t-85.5 -36t-84 35.5t-24 115.5zM938 301q0 -54 10 -78t39 -24q30 0 40.5 24t10.5 78q0 55 -10 78.5t-41 23.5q-29 0 -39 -23.5t-10 -78.5z" />
<glyph unicode="," horiz-adv-x="573" d="M184 -367l27 551h186l-84 -551h-129z" />
<glyph unicode="-" d="M129 154v292q61 9 76 9q67 0 96 -37.5t29 -116.5t-29.5 -115t-97.5 -36q-47 0 -74 4zM158 780q0 53 33.5 91t93.5 38q39 0 78 -21t69.5 -55t58.5 -74.5t48 -81.5t35 -75t22 -55l8 -21q-117 148 -319 148q-49 0 -88 30t-39 76zM188 201q4 -2 19 -2q37 0 50 25t13 77 q0 54 -13 78t-50 24q-13 0 -19 -2v-200zM377 154v297h155v-52h-96v-69h82v-49h-82v-78h96v-49h-155zM437 1128.5q-7 46.5 24 83.5q23 23 53 34t65 3.5t64 -35.5q38 -37 48.5 -102t-2.5 -131t-31.5 -126.5t-35.5 -98.5l-18 -39q20 191 -125 330q-35 35 -42 81.5zM571 154 q3 156 15 297h80l39 -164l38 164h82q3 -45 13 -297h-60q0 108 -6 213l-41 -168h-55l-41 168h-2q-4 -140 -4 -213h-58zM647 633q3 8 9 22t25 53.5t39 75.5t50 80.5t59.5 76t66 53.5t71.5 22q49 0 79.5 -24.5t39 -51t8.5 -53.5q0 -43 -34.5 -72.5t-72.5 -34.5 q-213 -23 -340 -147zM879 301q0 81 24 117.5t84 36.5t85.5 -37t25.5 -117q0 -79 -25.5 -115t-85.5 -36t-84 35.5t-24 115.5zM938 301q0 -54 10 -78t39 -24q30 0 40.5 24t10.5 78q0 55 -10 78.5t-41 23.5q-29 0 -39 -23.5t-10 -78.5z" />
<glyph unicode="." horiz-adv-x="573" d="M158 106q0 56 38 93t91 37t91 -37t38 -93t-37.5 -92.5t-91.5 -36.5t-91.5 36.5t-37.5 92.5z" />
<glyph unicode="/" d="M129 154v292q61 9 76 9q67 0 96 -37.5t29 -116.5t-29.5 -115t-97.5 -36q-47 0 -74 4zM158 780q0 53 33.5 91t93.5 38q39 0 78 -21t69.5 -55t58.5 -74.5t48 -81.5t35 -75t22 -55l8 -21q-117 148 -319 148q-49 0 -88 30t-39 76zM188 201q4 -2 19 -2q37 0 50 25t13 77 q0 54 -13 78t-50 24q-13 0 -19 -2v-200zM377 154v297h155v-52h-96v-69h82v-49h-82v-78h96v-49h-155zM437 1128.5q-7 46.5 24 83.5q23 23 53 34t65 3.5t64 -35.5q38 -37 48.5 -102t-2.5 -131t-31.5 -126.5t-35.5 -98.5l-18 -39q20 191 -125 330q-35 35 -42 81.5zM571 154 q3 156 15 297h80l39 -164l38 164h82q3 -45 13 -297h-60q0 108 -6 213l-41 -168h-55l-41 168h-2q-4 -140 -4 -213h-58zM647 633q3 8 9 22t25 53.5t39 75.5t50 80.5t59.5 76t66 53.5t71.5 22q49 0 79.5 -24.5t39 -51t8.5 -53.5q0 -43 -34.5 -72.5t-72.5 -34.5 q-213 -23 -340 -147zM879 301q0 81 24 117.5t84 36.5t85.5 -37t25.5 -117q0 -79 -25.5 -115t-85.5 -36t-84 35.5t-24 115.5zM938 301q0 -54 10 -78t39 -24q30 0 40.5 24t10.5 78q0 55 -10 78.5t-41 23.5q-29 0 -39 -23.5t-10 -78.5z" />
<glyph unicode="0" horiz-adv-x="1259" d="M135 688q0 150 30 273.5t89.5 216.5t155.5 144.5t221 51.5t220.5 -51.5t154.5 -144.5t88.5 -216.5t29.5 -273.5q0 -148 -29 -274t-86.5 -225t-154.5 -155.5t-223 -56.5q-127 0 -224.5 56.5t-155.5 155.5t-87 225t-29 274zM301 686q0 -124 18.5 -224t57 -176.5t103 -118.5 t151.5 -42q88 0 152 41.5t102 119t55.5 176.5t17.5 224q0 541 -327 541q-88 0 -152.5 -39t-103 -112.5t-56.5 -170t-18 -219.5z" />
<glyph unicode="1" horiz-adv-x="776" d="M61 1208l435 144h59v-1352h-160v1163l-295 -92z" />
<glyph unicode="2" horiz-adv-x="1146" d="M96 0v41l482 512q123 129 180 218.5t57 184.5q0 112 -71 191.5t-189 79.5q-122 0 -196 -82.5t-74 -196.5q0 -56 12 -112h-164q-14 55 -14 118q0 79 30 154t84.5 134.5t138.5 95.5t183 36q186 0 306 -117t120 -292q0 -59 -17.5 -118t-40 -103.5t-66.5 -101.5t-74 -90.5 t-85 -92.5l-299 -316h637v-143h-940z" />
<glyph unicode="3" horiz-adv-x="1101" d="M53 258l113 80q30 -46 62 -81t74 -66.5t95 -48.5t113 -17q139 0 227 83.5t88 217.5q0 131 -89.5 205t-252.5 74h-133v47l355 452h-560v148h811v-47l-358 -461q75 -7 144 -36.5t125.5 -79.5t90 -127.5t33.5 -172.5q0 -102 -39.5 -188.5t-105.5 -143t-152.5 -88 t-181.5 -31.5q-156 0 -273.5 79.5t-185.5 201.5z" />
<glyph unicode="4" d="M129 154v292q61 9 76 9q67 0 96 -37.5t29 -116.5t-29.5 -115t-97.5 -36q-47 0 -74 4zM158 780q0 53 33.5 91t93.5 38q39 0 78 -21t69.5 -55t58.5 -74.5t48 -81.5t35 -75t22 -55l8 -21q-117 148 -319 148q-49 0 -88 30t-39 76zM188 201q4 -2 19 -2q37 0 50 25t13 77 q0 54 -13 78t-50 24q-13 0 -19 -2v-200zM377 154v297h155v-52h-96v-69h82v-49h-82v-78h96v-49h-155zM437 1128.5q-7 46.5 24 83.5q23 23 53 34t65 3.5t64 -35.5q38 -37 48.5 -102t-2.5 -131t-31.5 -126.5t-35.5 -98.5l-18 -39q20 191 -125 330q-35 35 -42 81.5zM571 154 q3 156 15 297h80l39 -164l38 164h82q3 -45 13 -297h-60q0 108 -6 213l-41 -168h-55l-41 168h-2q-4 -140 -4 -213h-58zM647 633q3 8 9 22t25 53.5t39 75.5t50 80.5t59.5 76t66 53.5t71.5 22q49 0 79.5 -24.5t39 -51t8.5 -53.5q0 -43 -34.5 -72.5t-72.5 -34.5 q-213 -23 -340 -147zM879 301q0 81 24 117.5t84 36.5t85.5 -37t25.5 -117q0 -79 -25.5 -115t-85.5 -36t-84 35.5t-24 115.5zM938 301q0 -54 10 -78t39 -24q30 0 40.5 24t10.5 78q0 55 -10 78.5t-41 23.5q-29 0 -39 -23.5t-10 -78.5z" />
<glyph unicode="5" horiz-adv-x="1136" d="M80 256l110 82q139 -213 355 -213q137 0 226 83t89 218q0 134 -89.5 207.5t-254.5 73.5h-305v645h739v-144h-579v-379q100 17 192 17q73 0 140.5 -16t126.5 -49.5t102.5 -82t68.5 -118t25 -152.5q0 -102 -39.5 -188.5t-106 -143t-153 -88t-180.5 -31.5 q-160 0 -278.5 78.5t-188.5 200.5z" />
<glyph unicode="6" horiz-adv-x="1128" d="M102 434q0 36 4 68t17 68t20 56.5t32 61.5t32 53.5t41 62.5t41 60l336 488h190l-344 -496q49 18 113 18q182 0 311 -127.5t129 -314.5q0 -127 -61.5 -231.5t-167.5 -164t-232 -59.5q-192 0 -326.5 131t-134.5 326zM260 432q0 -132 87 -220.5t216 -88.5t216 88.5t87 220.5 q0 129 -87 218t-216 89t-216 -89t-87 -218z" />
<glyph unicode="7" horiz-adv-x="1026" d="M72 1208v144h903v-47l-684 -1305h-174l643 1208h-688z" />
<glyph unicode="8" horiz-adv-x="1183" d="M115 346q0 248 321 361q-124 58 -191 137.5t-67 193.5q0 157 118 246.5t296 89.5q113 0 204.5 -38t148 -115.5t56.5 -182.5q0 -216 -258 -329q322 -120 322 -365q0 -164 -129.5 -265.5t-343.5 -101.5q-215 0 -346 102t-131 267zM276 350q0 -106 83.5 -170.5t232.5 -64.5 t230 64t81 171q0 56 -23 100.5t-70 77.5t-95.5 56t-122.5 49q-75 -26 -124.5 -49t-97 -56.5t-71 -77.5t-23.5 -100zM336 1032q0 -87 62.5 -142t191.5 -108q128 51 191 106.5t63 143.5q0 96 -70.5 150.5t-181.5 54.5q-112 0 -184 -54.5t-72 -150.5z" />
<glyph unicode="9" horiz-adv-x="1128" d="M102 920q0 192 135 323t328 131q192 0 325.5 -130.5t133.5 -325.5q0 -25 -3 -50.5t-6 -45t-12.5 -46t-14 -40.5t-20 -42.5t-20.5 -38.5t-25.5 -42t-25.5 -39t-30 -44t-29 -43l-336 -487h-189l344 496q-52 -19 -114 -19q-118 0 -219 57.5t-161.5 160t-60.5 225.5zM260 922 q0 -131 88 -220.5t217 -89.5q128 0 214.5 89.5t86.5 220.5t-86 219t-215 88t-217 -88.5t-88 -218.5z" />
<glyph unicode=":" horiz-adv-x="573" d="M158 106q0 56 38 93t91 37t91 -37t38 -93t-37.5 -92.5t-91.5 -36.5t-91.5 36.5t-37.5 92.5zM158 879q0 56 37.5 92.5t91.5 36.5t91.5 -36.5t37.5 -92.5q0 -57 -37.5 -93t-91.5 -36t-91.5 36t-37.5 93z" />
<glyph unicode=";" horiz-adv-x="573" d="M158 879q0 56 37.5 92.5t91.5 36.5t91.5 -36.5t37.5 -92.5q0 -57 -37.5 -93t-91.5 -36t-91.5 36t-37.5 93zM184 -367l27 551h186l-84 -551h-129z" />
<glyph unicode="&#x3c;" d="M129 154v292q61 9 76 9q67 0 96 -37.5t29 -116.5t-29.5 -115t-97.5 -36q-47 0 -74 4zM158 780q0 53 33.5 91t93.5 38q39 0 78 -21t69.5 -55t58.5 -74.5t48 -81.5t35 -75t22 -55l8 -21q-117 148 -319 148q-49 0 -88 30t-39 76zM188 201q4 -2 19 -2q37 0 50 25t13 77 q0 54 -13 78t-50 24q-13 0 -19 -2v-200zM377 154v297h155v-52h-96v-69h82v-49h-82v-78h96v-49h-155zM437 1128.5q-7 46.5 24 83.5q23 23 53 34t65 3.5t64 -35.5q38 -37 48.5 -102t-2.5 -131t-31.5 -126.5t-35.5 -98.5l-18 -39q20 191 -125 330q-35 35 -42 81.5zM571 154 q3 156 15 297h80l39 -164l38 164h82q3 -45 13 -297h-60q0 108 -6 213l-41 -168h-55l-41 168h-2q-4 -140 -4 -213h-58zM647 633q3 8 9 22t25 53.5t39 75.5t50 80.5t59.5 76t66 53.5t71.5 22q49 0 79.5 -24.5t39 -51t8.5 -53.5q0 -43 -34.5 -72.5t-72.5 -34.5 q-213 -23 -340 -147zM879 301q0 81 24 117.5t84 36.5t85.5 -37t25.5 -117q0 -79 -25.5 -115t-85.5 -36t-84 35.5t-24 115.5zM938 301q0 -54 10 -78t39 -24q30 0 40.5 24t10.5 78q0 55 -10 78.5t-41 23.5q-29 0 -39 -23.5t-10 -78.5z" />
<glyph unicode="=" d="M129 154v292q61 9 76 9q67 0 96 -37.5t29 -116.5t-29.5 -115t-97.5 -36q-47 0 -74 4zM158 780q0 53 33.5 91t93.5 38q39 0 78 -21t69.5 -55t58.5 -74.5t48 -81.5t35 -75t22 -55l8 -21q-117 148 -319 148q-49 0 -88 30t-39 76zM188 201q4 -2 19 -2q37 0 50 25t13 77 q0 54 -13 78t-50 24q-13 0 -19 -2v-200zM377 154v297h155v-52h-96v-69h82v-49h-82v-78h96v-49h-155zM437 1128.5q-7 46.5 24 83.5q23 23 53 34t65 3.5t64 -35.5q38 -37 48.5 -102t-2.5 -131t-31.5 -126.5t-35.5 -98.5l-18 -39q20 191 -125 330q-35 35 -42 81.5zM571 154 q3 156 15 297h80l39 -164l38 164h82q3 -45 13 -297h-60q0 108 -6 213l-41 -168h-55l-41 168h-2q-4 -140 -4 -213h-58zM647 633q3 8 9 22t25 53.5t39 75.5t50 80.5t59.5 76t66 53.5t71.5 22q49 0 79.5 -24.5t39 -51t8.5 -53.5q0 -43 -34.5 -72.5t-72.5 -34.5 q-213 -23 -340 -147zM879 301q0 81 24 117.5t84 36.5t85.5 -37t25.5 -117q0 -79 -25.5 -115t-85.5 -36t-84 35.5t-24 115.5zM938 301q0 -54 10 -78t39 -24q30 0 40.5 24t10.5 78q0 55 -10 78.5t-41 23.5q-29 0 -39 -23.5t-10 -78.5z" />
<glyph unicode="&#x3e;" d="M129 154v292q61 9 76 9q67 0 96 -37.5t29 -116.5t-29.5 -115t-97.5 -36q-47 0 -74 4zM158 780q0 53 33.5 91t93.5 38q39 0 78 -21t69.5 -55t58.5 -74.5t48 -81.5t35 -75t22 -55l8 -21q-117 148 -319 148q-49 0 -88 30t-39 76zM188 201q4 -2 19 -2q37 0 50 25t13 77 q0 54 -13 78t-50 24q-13 0 -19 -2v-200zM377 154v297h155v-52h-96v-69h82v-49h-82v-78h96v-49h-155zM437 1128.5q-7 46.5 24 83.5q23 23 53 34t65 3.5t64 -35.5q38 -37 48.5 -102t-2.5 -131t-31.5 -126.5t-35.5 -98.5l-18 -39q20 191 -125 330q-35 35 -42 81.5zM571 154 q3 156 15 297h80l39 -164l38 164h82q3 -45 13 -297h-60q0 108 -6 213l-41 -168h-55l-41 168h-2q-4 -140 -4 -213h-58zM647 633q3 8 9 22t25 53.5t39 75.5t50 80.5t59.5 76t66 53.5t71.5 22q49 0 79.5 -24.5t39 -51t8.5 -53.5q0 -43 -34.5 -72.5t-72.5 -34.5 q-213 -23 -340 -147zM879 301q0 81 24 117.5t84 36.5t85.5 -37t25.5 -117q0 -79 -25.5 -115t-85.5 -36t-84 35.5t-24 115.5zM938 301q0 -54 10 -78t39 -24q30 0 40.5 24t10.5 78q0 55 -10 78.5t-41 23.5q-29 0 -39 -23.5t-10 -78.5z" />
<glyph unicode="?" horiz-adv-x="911" d="M92 1087q40 137 136 212t231 75q151 0 255.5 -96.5t104.5 -245.5q0 -95 -48.5 -170.5t-145.5 -161.5q-44 -40 -62.5 -58t-42.5 -46.5t-32.5 -51.5t-8.5 -50q0 -21 10 -66h-137q-20 42 -20 90q0 37 12 70t38 66t50 56.5t64 59.5q90 84 124.5 133.5t34.5 118.5 q0 91 -57.5 149t-142.5 58q-79 0 -139.5 -50t-90.5 -147zM301 106q0 56 38.5 93t90.5 37q55 0 93 -37t38 -93t-38 -92.5t-93 -36.5q-52 0 -90.5 36.5t-38.5 92.5z" />
<glyph unicode="@" d="M129 154v292q61 9 76 9q67 0 96 -37.5t29 -116.5t-29.5 -115t-97.5 -36q-47 0 -74 4zM158 780q0 53 33.5 91t93.5 38q39 0 78 -21t69.5 -55t58.5 -74.5t48 -81.5t35 -75t22 -55l8 -21q-117 148 -319 148q-49 0 -88 30t-39 76zM188 201q4 -2 19 -2q37 0 50 25t13 77 q0 54 -13 78t-50 24q-13 0 -19 -2v-200zM377 154v297h155v-52h-96v-69h82v-49h-82v-78h96v-49h-155zM437 1128.5q-7 46.5 24 83.5q23 23 53 34t65 3.5t64 -35.5q38 -37 48.5 -102t-2.5 -131t-31.5 -126.5t-35.5 -98.5l-18 -39q20 191 -125 330q-35 35 -42 81.5zM571 154 q3 156 15 297h80l39 -164l38 164h82q3 -45 13 -297h-60q0 108 -6 213l-41 -168h-55l-41 168h-2q-4 -140 -4 -213h-58zM647 633q3 8 9 22t25 53.5t39 75.5t50 80.5t59.5 76t66 53.5t71.5 22q49 0 79.5 -24.5t39 -51t8.5 -53.5q0 -43 -34.5 -72.5t-72.5 -34.5 q-213 -23 -340 -147zM879 301q0 81 24 117.5t84 36.5t85.5 -37t25.5 -117q0 -79 -25.5 -115t-85.5 -36t-84 35.5t-24 115.5zM938 301q0 -54 10 -78t39 -24q30 0 40.5 24t10.5 78q0 55 -10 78.5t-41 23.5q-29 0 -39 -23.5t-10 -78.5z" />
<glyph unicode="A" horiz-adv-x="1357" d="M63 0l586 1374h60l585 -1374h-170l-114 274h-664l-115 -274h-168zM408 418h540l-270 665z" />
<glyph unicode="B" horiz-adv-x="1261" d="M186 0v1352h465q177 0 281 -95.5t104 -246.5q0 -171 -129 -267q126 -37 195 -130t69 -224q0 -171 -115.5 -280t-312.5 -109h-557zM346 143h381q134 0 207.5 68.5t73.5 181.5q0 112 -74 181t-207 69h-381v-500zM346 788h289q115 0 176 57t61 154t-60 153t-177 56h-289 v-420z" />
<glyph unicode="C" horiz-adv-x="1464" d="M98 676q0 194 93.5 354.5t255 252t354.5 91.5q180 0 327 -79t234 -212l-119 -94q-77 113 -189.5 175.5t-250.5 62.5q-113 0 -213 -42t-171.5 -115t-113 -175.5t-41.5 -218.5t41.5 -218.5t113 -175.5t171.5 -115t213 -42q138 0 250.5 62t189.5 175l119 -94 q-84 -132 -232.5 -211.5t-328.5 -79.5q-144 0 -274 54t-224.5 147t-149.5 223t-55 275z" />
<glyph unicode="D" horiz-adv-x="1421" d="M186 0v1352h402q169 0 308 -50t232 -139.5t144 -213.5t51 -271q0 -145 -51 -269t-144 -215t-232 -142.5t-308 -51.5h-402zM346 143h240q133 0 241.5 41t180 113t110.5 169.5t39 211.5q0 237 -152.5 383.5t-418.5 146.5h-240v-1065z" />
<glyph unicode="E" horiz-adv-x="1159" d="M186 0v1352h867v-144h-707v-413h541v-144h-541v-508h731v-143h-891z" />
<glyph unicode="F" horiz-adv-x="1073" d="M186 0v1352h846v-144h-686v-465h569v-145h-569v-598h-160z" />
<glyph unicode="G" horiz-adv-x="1527" d="M98 676q0 146 55 275.5t149 222t224 146.5t275 54q171 0 313.5 -72.5t237.5 -203.5l-121 -94q-77 107 -186 165t-244 58q-233 0 -385 -157t-152 -392q0 -156 69.5 -283.5t194.5 -200.5t281 -73q147 0 264 65.5t187 175.5v183h-461v143h620v-360q-91 -160 -255 -255.5 t-363 -95.5q-146 0 -276 54.5t-224 147.5t-148.5 222.5t-54.5 274.5z" />
<glyph unicode="H" horiz-adv-x="1449" d="M186 0v1352h160v-557h758v557h160v-1352h-160v651h-758v-651h-160z" />
<glyph unicode="I" horiz-adv-x="530" d="M186 0v1352h160v-1352h-160z" />
<glyph unicode="J" horiz-adv-x="763" d="M49 0v137q83 -12 148 -12q109 0 166 44.5t57 158.5v1024h160v-1039q0 -170 -95 -253t-258 -83q-76 0 -178 23z" />
<glyph unicode="K" horiz-adv-x="1296" d="M186 0v1352h160v-1352h-160zM365 725l608 627h205l-605 -627l660 -725h-203z" />
<glyph unicode="L" horiz-adv-x="1036" d="M186 0v1352h160v-1209h641v-143h-801z" />
<glyph unicode="M" horiz-adv-x="1615" d="M186 0v1374h58l563 -780l567 780h56v-1374h-160v969l-432 -586h-58l-434 590v-973h-160z" />
<glyph unicode="N" horiz-adv-x="1449" d="M186 0v1374h58l860 -1038v1016h160v-1375h-58l-860 1037v-1014h-160z" />
<glyph unicode="O" horiz-adv-x="1599" d="M98 676q0 194 93.5 354.5t254.5 252t353 91.5q191 0 352 -91.5t255.5 -252t94.5 -354.5t-94.5 -355t-255.5 -252.5t-352 -91.5q-144 0 -274 54.5t-223.5 147.5t-148.5 222.5t-55 274.5zM264 678q0 -237 153 -395t384 -158q150 0 272.5 72t192 199t69.5 282 q0 234 -153 391.5t-381 157.5q-231 0 -384 -157t-153 -392z" />
<glyph unicode="P" horiz-adv-x="1173" d="M186 0v1352h476q197 0 314.5 -109t117.5 -282q0 -174 -117.5 -285t-314.5 -111h-316v-565h-160zM346 709h311q130 0 200.5 68.5t70.5 180.5q0 111 -71 180.5t-200 69.5h-311v-499z" />
<glyph unicode="Q" horiz-adv-x="1599" d="M98 676q0 194 93.5 354.5t254.5 252t353 91.5q191 0 352 -91.5t255.5 -252t94.5 -354.5q0 -181 -82 -332.5t-223 -247.5q143 -188 323.5 -281.5t413.5 -93.5q72 0 197 11v-127q-119 -21 -217 -21q-264 0 -478.5 113.5t-369.5 331.5q-129 -52 -266 -52q-144 0 -274 54.5 t-223.5 147.5t-148.5 222.5t-55 274.5zM264 678q0 -236 153.5 -394.5t383.5 -158.5q228 0 381 158t153 393q0 155 -69 281t-192 198t-275 72q-230 0 -382.5 -157t-152.5 -392z" />
<glyph unicode="R" horiz-adv-x="1273" d="M186 0v1352h476q197 0 314.5 -109t117.5 -282q0 -137 -76 -237t-209 -138l432 -586h-186l-420 567h-289v-567h-160zM346 711h309q130 0 201.5 67.5t71.5 179.5q0 111 -71.5 180.5t-201.5 69.5h-309v-497z" />
<glyph unicode="S" horiz-adv-x="1142" d="M84 268l119 88q152 -231 377 -231q121 0 196.5 61.5t75.5 163.5q0 45 -15 80t-49.5 63.5t-67.5 47.5t-93 47l-152 71q-51 24 -87 44.5t-80.5 54.5t-72 69.5t-46.5 86t-19 108.5q0 104 56.5 185.5t149 124t202.5 42.5q134 0 246 -63t177 -166l-116 -88q-55 81 -136 125.5 t-174 44.5q-101 0 -170 -51t-69 -146q0 -36 12 -66t27.5 -49.5t49.5 -42t57 -34.5t71 -35l149 -72q79 -38 133.5 -73.5t97.5 -80.5t64 -100t21 -123q0 -168 -123 -272.5t-313 -104.5q-159 0 -289 77.5t-209 213.5z" />
<glyph unicode="T" horiz-adv-x="1189" d="M39 1208v144h1112v-144h-477v-1208h-160v1208h-475z" />
<glyph unicode="U" horiz-adv-x="1411" d="M168 537v815h160v-826q0 -132 51.5 -224t135.5 -134.5t192 -42.5q165 0 269.5 102.5t104.5 298.5v826h160v-815q0 -132 -40.5 -239t-112 -176.5t-169 -107t-212.5 -37.5q-157 0 -277.5 64t-191 192t-70.5 304z" />
<glyph unicode="V" horiz-adv-x="1357" d="M63 1352h177l440 -1061l438 1061h176l-585 -1375h-60z" />
<glyph unicode="W" horiz-adv-x="2183" d="M92 1352h176l373 -1030l422 1052h57l422 -1050l373 1028h174l-512 -1375h-57l-428 1074l-428 -1074h-58z" />
<glyph unicode="X" horiz-adv-x="1226" d="M61 0l465 692l-432 660h185l335 -527l334 527h185l-426 -662l458 -690h-186l-365 555l-366 -555h-187z" />
<glyph unicode="Y" horiz-adv-x="1261" d="M82 1352h180l369 -635l370 635h179l-469 -793v-559h-160v559z" />
<glyph unicode="Z" horiz-adv-x="1206" d="M66 0v47l815 1161h-727v144h981v-47l-820 -1162h822v-143h-1071z" />
<glyph unicode="[" d="M129 154v292q61 9 76 9q67 0 96 -37.5t29 -116.5t-29.5 -115t-97.5 -36q-47 0 -74 4zM158 780q0 53 33.5 91t93.5 38q39 0 78 -21t69.5 -55t58.5 -74.5t48 -81.5t35 -75t22 -55l8 -21q-117 148 -319 148q-49 0 -88 30t-39 76zM188 201q4 -2 19 -2q37 0 50 25t13 77 q0 54 -13 78t-50 24q-13 0 -19 -2v-200zM377 154v297h155v-52h-96v-69h82v-49h-82v-78h96v-49h-155zM437 1128.5q-7 46.5 24 83.5q23 23 53 34t65 3.5t64 -35.5q38 -37 48.5 -102t-2.5 -131t-31.5 -126.5t-35.5 -98.5l-18 -39q20 191 -125 330q-35 35 -42 81.5zM571 154 q3 156 15 297h80l39 -164l38 164h82q3 -45 13 -297h-60q0 108 -6 213l-41 -168h-55l-41 168h-2q-4 -140 -4 -213h-58zM647 633q3 8 9 22t25 53.5t39 75.5t50 80.5t59.5 76t66 53.5t71.5 22q49 0 79.5 -24.5t39 -51t8.5 -53.5q0 -43 -34.5 -72.5t-72.5 -34.5 q-213 -23 -340 -147zM879 301q0 81 24 117.5t84 36.5t85.5 -37t25.5 -117q0 -79 -25.5 -115t-85.5 -36t-84 35.5t-24 115.5zM938 301q0 -54 10 -78t39 -24q30 0 40.5 24t10.5 78q0 55 -10 78.5t-41 23.5q-29 0 -39 -23.5t-10 -78.5z" />
<glyph unicode="\" d="M129 154v292q61 9 76 9q67 0 96 -37.5t29 -116.5t-29.5 -115t-97.5 -36q-47 0 -74 4zM158 780q0 53 33.5 91t93.5 38q39 0 78 -21t69.5 -55t58.5 -74.5t48 -81.5t35 -75t22 -55l8 -21q-117 148 -319 148q-49 0 -88 30t-39 76zM188 201q4 -2 19 -2q37 0 50 25t13 77 q0 54 -13 78t-50 24q-13 0 -19 -2v-200zM377 154v297h155v-52h-96v-69h82v-49h-82v-78h96v-49h-155zM437 1128.5q-7 46.5 24 83.5q23 23 53 34t65 3.5t64 -35.5q38 -37 48.5 -102t-2.5 -131t-31.5 -126.5t-35.5 -98.5l-18 -39q20 191 -125 330q-35 35 -42 81.5zM571 154 q3 156 15 297h80l39 -164l38 164h82q3 -45 13 -297h-60q0 108 -6 213l-41 -168h-55l-41 168h-2q-4 -140 -4 -213h-58zM647 633q3 8 9 22t25 53.5t39 75.5t50 80.5t59.5 76t66 53.5t71.5 22q49 0 79.5 -24.5t39 -51t8.5 -53.5q0 -43 -34.5 -72.5t-72.5 -34.5 q-213 -23 -340 -147zM879 301q0 81 24 117.5t84 36.5t85.5 -37t25.5 -117q0 -79 -25.5 -115t-85.5 -36t-84 35.5t-24 115.5zM938 301q0 -54 10 -78t39 -24q30 0 40.5 24t10.5 78q0 55 -10 78.5t-41 23.5q-29 0 -39 -23.5t-10 -78.5z" />
<glyph unicode="]" d="M129 154v292q61 9 76 9q67 0 96 -37.5t29 -116.5t-29.5 -115t-97.5 -36q-47 0 -74 4zM158 780q0 53 33.5 91t93.5 38q39 0 78 -21t69.5 -55t58.5 -74.5t48 -81.5t35 -75t22 -55l8 -21q-117 148 -319 148q-49 0 -88 30t-39 76zM188 201q4 -2 19 -2q37 0 50 25t13 77 q0 54 -13 78t-50 24q-13 0 -19 -2v-200zM377 154v297h155v-52h-96v-69h82v-49h-82v-78h96v-49h-155zM437 1128.5q-7 46.5 24 83.5q23 23 53 34t65 3.5t64 -35.5q38 -37 48.5 -102t-2.5 -131t-31.5 -126.5t-35.5 -98.5l-18 -39q20 191 -125 330q-35 35 -42 81.5zM571 154 q3 156 15 297h80l39 -164l38 164h82q3 -45 13 -297h-60q0 108 -6 213l-41 -168h-55l-41 168h-2q-4 -140 -4 -213h-58zM647 633q3 8 9 22t25 53.5t39 75.5t50 80.5t59.5 76t66 53.5t71.5 22q49 0 79.5 -24.5t39 -51t8.5 -53.5q0 -43 -34.5 -72.5t-72.5 -34.5 q-213 -23 -340 -147zM879 301q0 81 24 117.5t84 36.5t85.5 -37t25.5 -117q0 -79 -25.5 -115t-85.5 -36t-84 35.5t-24 115.5zM938 301q0 -54 10 -78t39 -24q30 0 40.5 24t10.5 78q0 55 -10 78.5t-41 23.5q-29 0 -39 -23.5t-10 -78.5z" />
<glyph unicode="^" d="M129 154v292q61 9 76 9q67 0 96 -37.5t29 -116.5t-29.5 -115t-97.5 -36q-47 0 -74 4zM158 780q0 53 33.5 91t93.5 38q39 0 78 -21t69.5 -55t58.5 -74.5t48 -81.5t35 -75t22 -55l8 -21q-117 148 -319 148q-49 0 -88 30t-39 76zM188 201q4 -2 19 -2q37 0 50 25t13 77 q0 54 -13 78t-50 24q-13 0 -19 -2v-200zM377 154v297h155v-52h-96v-69h82v-49h-82v-78h96v-49h-155zM437 1128.5q-7 46.5 24 83.5q23 23 53 34t65 3.5t64 -35.5q38 -37 48.5 -102t-2.5 -131t-31.5 -126.5t-35.5 -98.5l-18 -39q20 191 -125 330q-35 35 -42 81.5zM571 154 q3 156 15 297h80l39 -164l38 164h82q3 -45 13 -297h-60q0 108 -6 213l-41 -168h-55l-41 168h-2q-4 -140 -4 -213h-58zM647 633q3 8 9 22t25 53.5t39 75.5t50 80.5t59.5 76t66 53.5t71.5 22q49 0 79.5 -24.5t39 -51t8.5 -53.5q0 -43 -34.5 -72.5t-72.5 -34.5 q-213 -23 -340 -147zM879 301q0 81 24 117.5t84 36.5t85.5 -37t25.5 -117q0 -79 -25.5 -115t-85.5 -36t-84 35.5t-24 115.5zM938 301q0 -54 10 -78t39 -24q30 0 40.5 24t10.5 78q0 55 -10 78.5t-41 23.5q-29 0 -39 -23.5t-10 -78.5z" />
<glyph unicode="_" d="M129 154v292q61 9 76 9q67 0 96 -37.5t29 -116.5t-29.5 -115t-97.5 -36q-47 0 -74 4zM158 780q0 53 33.5 91t93.5 38q39 0 78 -21t69.5 -55t58.5 -74.5t48 -81.5t35 -75t22 -55l8 -21q-117 148 -319 148q-49 0 -88 30t-39 76zM188 201q4 -2 19 -2q37 0 50 25t13 77 q0 54 -13 78t-50 24q-13 0 -19 -2v-200zM377 154v297h155v-52h-96v-69h82v-49h-82v-78h96v-49h-155zM437 1128.5q-7 46.5 24 83.5q23 23 53 34t65 3.5t64 -35.5q38 -37 48.5 -102t-2.5 -131t-31.5 -126.5t-35.5 -98.5l-18 -39q20 191 -125 330q-35 35 -42 81.5zM571 154 q3 156 15 297h80l39 -164l38 164h82q3 -45 13 -297h-60q0 108 -6 213l-41 -168h-55l-41 168h-2q-4 -140 -4 -213h-58zM647 633q3 8 9 22t25 53.5t39 75.5t50 80.5t59.5 76t66 53.5t71.5 22q49 0 79.5 -24.5t39 -51t8.5 -53.5q0 -43 -34.5 -72.5t-72.5 -34.5 q-213 -23 -340 -147zM879 301q0 81 24 117.5t84 36.5t85.5 -37t25.5 -117q0 -79 -25.5 -115t-85.5 -36t-84 35.5t-24 115.5zM938 301q0 -54 10 -78t39 -24q30 0 40.5 24t10.5 78q0 55 -10 78.5t-41 23.5q-29 0 -39 -23.5t-10 -78.5z" />
<glyph unicode="`" d="M129 154v292q61 9 76 9q67 0 96 -37.5t29 -116.5t-29.5 -115t-97.5 -36q-47 0 -74 4zM158 780q0 53 33.5 91t93.5 38q39 0 78 -21t69.5 -55t58.5 -74.5t48 -81.5t35 -75t22 -55l8 -21q-117 148 -319 148q-49 0 -88 30t-39 76zM188 201q4 -2 19 -2q37 0 50 25t13 77 q0 54 -13 78t-50 24q-13 0 -19 -2v-200zM377 154v297h155v-52h-96v-69h82v-49h-82v-78h96v-49h-155zM437 1128.5q-7 46.5 24 83.5q23 23 53 34t65 3.5t64 -35.5q38 -37 48.5 -102t-2.5 -131t-31.5 -126.5t-35.5 -98.5l-18 -39q20 191 -125 330q-35 35 -42 81.5zM571 154 q3 156 15 297h80l39 -164l38 164h82q3 -45 13 -297h-60q0 108 -6 213l-41 -168h-55l-41 168h-2q-4 -140 -4 -213h-58zM647 633q3 8 9 22t25 53.5t39 75.5t50 80.5t59.5 76t66 53.5t71.5 22q49 0 79.5 -24.5t39 -51t8.5 -53.5q0 -43 -34.5 -72.5t-72.5 -34.5 q-213 -23 -340 -147zM879 301q0 81 24 117.5t84 36.5t85.5 -37t25.5 -117q0 -79 -25.5 -115t-85.5 -36t-84 35.5t-24 115.5zM938 301q0 -54 10 -78t39 -24q30 0 40.5 24t10.5 78q0 55 -10 78.5t-41 23.5q-29 0 -39 -23.5t-10 -78.5z" />
<glyph unicode="a" horiz-adv-x="1081" d="M90 258q0 126 98 202.5t261 76.5h315v86q0 123 -64.5 187t-177.5 64q-90 0 -160 -40t-131 -119l-104 86q68 110 174 164.5t231 54.5q176 0 283 -105.5t107 -300.5v-614h-148v129q-55 -73 -141 -112.5t-195 -39.5q-153 0 -250.5 76.5t-97.5 204.5zM252 266 q0 -76 59 -116.5t148 -40.5q125 0 215 79t90 195v25h-297q-105 0 -160 -36t-55 -106z" />
<glyph unicode="b" horiz-adv-x="1294" d="M174 0v1536h158v-684q60 78 157 123t209 45q140 0 253.5 -68.5t177 -188t63.5 -265.5q0 -221 -140 -371t-352 -150q-117 0 -218.5 48.5t-159.5 132.5v-158h-148zM330 498q0 -95 29.5 -168.5t79.5 -117.5t110 -66.5t127 -22.5q154 0 254 107t100 270q0 162 -100.5 268 t-253.5 106q-67 0 -127.5 -22.5t-110 -66.5t-79 -118t-29.5 -169z" />
<glyph unicode="c" horiz-adv-x="1128" d="M102 500q0 143 69.5 262.5t190 188.5t263.5 69q131 0 237 -58t174 -159l-112 -90q-122 161 -297 161q-156 0 -259.5 -108t-103.5 -266q0 -159 103.5 -268t259.5 -109q174 0 295 160l112 -88q-68 -101 -173.5 -159.5t-235.5 -58.5q-143 0 -263.5 69t-190 189.5 t-69.5 264.5z" />
<glyph unicode="d" horiz-adv-x="1294" d="M102 498q0 146 63.5 265.5t177 188t253.5 68.5q113 0 211 -45.5t158 -124.5v686h157v-1536h-149v158q-58 -85 -159 -133t-218 -48q-140 0 -253.5 69t-177 188t-63.5 264zM264 500q0 -163 100 -270t254 -107q67 0 127.5 22.5t111 66t80.5 118t30 168.5t-30 168.5 t-80.5 118.5t-111 66.5t-127.5 22.5q-153 0 -253.5 -106t-100.5 -268z" />
<glyph unicode="e" horiz-adv-x="1169" d="M102 498q0 143 67 263t184.5 189.5t258.5 69.5q194 0 324.5 -127t130.5 -324q0 -58 -12 -118h-789q15 -148 116.5 -238t250.5 -90q170 0 305 135l92 -106q-165 -175 -399 -175q-225 0 -377 150.5t-152 370.5zM272 590h633q-1 133 -87 210t-210 77q-126 0 -218 -79 t-118 -208z" />
<glyph unicode="f" horiz-adv-x="620" d="M55 856v141h144v238q0 164 88.5 244t240.5 80q62 0 125 -17v-133q-49 6 -88 6q-101 0 -155 -42t-54 -148v-228h250v-141h-250v-856h-157v856h-144z" />
<glyph unicode="g" horiz-adv-x="1304" d="M115 514q0 217 139.5 361.5t349.5 144.5q119 0 220 -48t159 -134v159h150v-901q0 -228 -132.5 -357.5t-353.5 -129.5q-145 0 -265.5 54.5t-203.5 137.5l92 111q85 -74 173 -116t200 -42q155 0 243.5 85.5t88.5 248.5v88q-60 -78 -159 -122t-212 -44q-211 0 -350 143 t-139 361zM274 512q0 -157 100.5 -256.5t254.5 -99.5q67 0 128 21.5t111 63.5t79.5 112.5t29.5 160.5t-30 160.5t-80 112t-110.5 62.5t-127.5 21q-153 0 -254 -100.5t-101 -257.5z" />
<glyph unicode="h" horiz-adv-x="1159" d="M174 0v1536h158v-651q109 135 299 135q172 0 270 -108t98 -285v-627h-157v606q0 120 -67 194t-181 74q-115 0 -188.5 -75.5t-73.5 -192.5v-606h-158z" />
<glyph unicode="i" horiz-adv-x="503" d="M135 1378q0 47 35 81t84 34q47 0 82 -34t35 -81q0 -49 -34.5 -81.5t-82.5 -32.5q-50 0 -84.5 32.5t-34.5 81.5zM174 0v997h158v-997h-158z" />
<glyph unicode="j" horiz-adv-x="503" d="M-123 -242q52 -6 92 -6q98 0 151.5 43.5t53.5 147.5v1054h158v-1065q0 -163 -89 -243t-239 -80q-68 0 -127 16v133zM135 1378q0 47 35 81t84 34q47 0 82 -34t35 -81q0 -49 -34.5 -81.5t-82.5 -32.5q-50 0 -84.5 32.5t-34.5 81.5z" />
<glyph unicode="k" horiz-adv-x="1036" d="M174 0v1536h158v-1536h-158zM348 561l416 436h207l-432 -438l471 -559h-203z" />
<glyph unicode="l" horiz-adv-x="503" d="M174 0v1536h158v-1536h-158z" />
<glyph unicode="m" horiz-adv-x="1789" d="M174 0v997h148v-104q111 127 296 127q109 0 187 -45.5t121 -126.5q55 79 143 125.5t199 46.5q171 0 266.5 -108t95.5 -285v-627h-157v606q0 121 -62.5 194.5t-173.5 73.5q-112 0 -184 -73.5t-72 -179.5v-621h-158v606q0 120 -64 194t-173 74q-114 0 -184 -74.5 t-70 -193.5v-606h-158z" />
<glyph unicode="n" horiz-adv-x="1159" d="M174 0v997h148v-106q116 129 307 129q174 0 272 -108t98 -285v-627h-157v608q0 120 -67 193t-181 73q-115 0 -188.5 -74.5t-73.5 -191.5v-608h-158z" />
<glyph unicode="o" horiz-adv-x="1249" d="M102 500q0 219 151.5 369.5t371.5 150.5q218 0 370 -151t152 -369q0 -217 -152.5 -368.5t-371.5 -151.5q-107 0 -203.5 41t-166 110.5t-110.5 165.5t-41 203zM264 498q0 -160 102.5 -266.5t256.5 -106.5t258 107.5t104 265.5q0 161 -103 268.5t-257 107.5 q-155 0 -258 -107.5t-103 -268.5z" />
<glyph unicode="p" horiz-adv-x="1294" d="M174 -369v1366h148v-159q58 86 158 134t218 48q141 0 254.5 -68.5t176.5 -187.5t63 -264q0 -146 -63.5 -265.5t-177 -188.5t-253.5 -69q-109 0 -207 44t-159 122v-512h-158zM330 500q0 -95 29.5 -169t79 -118.5t110 -67t127.5 -22.5q153 0 253.5 106.5t100.5 268.5 q0 163 -100 269.5t-254 106.5q-67 0 -127 -22t-110 -66t-79.5 -117.5t-29.5 -168.5z" />
<glyph unicode="q" horiz-adv-x="1294" d="M102 500q0 145 63.5 264t177 187.5t253.5 68.5q118 0 218.5 -48t158.5 -134v159h149v-1366h-157v514q-59 -79 -158.5 -123.5t-210.5 -44.5q-140 0 -253.5 69t-177 188.5t-63.5 265.5zM264 498q0 -162 100.5 -268.5t253.5 -106.5q67 0 127.5 22.5t111 67t80.5 119 t30 168.5t-30 168t-80.5 118t-111 66t-127.5 22q-153 0 -253.5 -107t-100.5 -269z" />
<glyph unicode="r" horiz-adv-x="741" d="M174 0v997h148v-141q55 72 136.5 111t172.5 39q29 0 74 -9v-139h-60q-129 0 -221 -78.5t-92 -214.5v-565h-158z" />
<glyph unicode="s" horiz-adv-x="929" d="M80 172l100 104q71 -74 137 -113.5t150 -39.5q81 0 135.5 38t54.5 103q0 31 -11.5 54.5t-39.5 43t-52.5 31.5t-70.5 31l-96 41q-125 52 -186.5 114.5t-61.5 161.5q0 130 96.5 204.5t239.5 74.5q206 0 334 -158l-96 -98q-107 110 -246 110q-73 0 -119.5 -32.5t-46.5 -91.5 q0 -48 36 -78t126 -68l92 -39q139 -59 201.5 -126t62.5 -169q0 -139 -101.5 -216t-248.5 -77q-124 0 -224 54t-165 141z" />
<glyph unicode="t" horiz-adv-x="780" d="M49 856v141h168v273h158v-273h311v-141h-311v-545q0 -106 54.5 -148t156.5 -42q56 0 133 12v-133q-98 -23 -166 -23q-155 0 -245.5 80t-90.5 244v555h-168z" />
<glyph unicode="u" horiz-adv-x="1146" d="M162 397v600h155v-610q0 -120 74 -192t184 -72q108 0 181 72t73 192v610h158v-600q0 -188 -118 -304t-294 -116q-178 0 -295.5 115.5t-117.5 304.5z" />
<glyph unicode="v" horiz-adv-x="1103" d="M53 997h168l332 -751l330 751h168l-469 -1020h-58z" />
<glyph unicode="w" horiz-adv-x="1742" d="M53 997h168l289 -739l332 762h59l336 -756l283 733h168l-420 -1020h-58l-340 754l-338 -754h-55z" />
<glyph unicode="x" horiz-adv-x="1017" d="M41 0l371 520l-340 477h182l254 -366l256 366h182l-346 -477l375 -520h-182l-285 410l-283 -410h-184z" />
<glyph unicode="y" horiz-adv-x="1103" d="M53 997h170l330 -794l330 794h168l-492 -1136q-58 -132 -140 -192t-198 -60q-75 0 -153 20v133q78 -10 120 -10q78 0 132.5 35t93.5 125l53 119z" />
<glyph unicode="z" horiz-adv-x="929" d="M55 0v47l570 809h-523v141h766v-47l-571 -811h577v-139h-819z" />
<glyph unicode="{" d="M129 154v292q61 9 76 9q67 0 96 -37.5t29 -116.5t-29.5 -115t-97.5 -36q-47 0 -74 4zM158 780q0 53 33.5 91t93.5 38q39 0 78 -21t69.5 -55t58.5 -74.5t48 -81.5t35 -75t22 -55l8 -21q-117 148 -319 148q-49 0 -88 30t-39 76zM188 201q4 -2 19 -2q37 0 50 25t13 77 q0 54 -13 78t-50 24q-13 0 -19 -2v-200zM377 154v297h155v-52h-96v-69h82v-49h-82v-78h96v-49h-155zM437 1128.5q-7 46.5 24 83.5q23 23 53 34t65 3.5t64 -35.5q38 -37 48.5 -102t-2.5 -131t-31.5 -126.5t-35.5 -98.5l-18 -39q20 191 -125 330q-35 35 -42 81.5zM571 154 q3 156 15 297h80l39 -164l38 164h82q3 -45 13 -297h-60q0 108 -6 213l-41 -168h-55l-41 168h-2q-4 -140 -4 -213h-58zM647 633q3 8 9 22t25 53.5t39 75.5t50 80.5t59.5 76t66 53.5t71.5 22q49 0 79.5 -24.5t39 -51t8.5 -53.5q0 -43 -34.5 -72.5t-72.5 -34.5 q-213 -23 -340 -147zM879 301q0 81 24 117.5t84 36.5t85.5 -37t25.5 -117q0 -79 -25.5 -115t-85.5 -36t-84 35.5t-24 115.5zM938 301q0 -54 10 -78t39 -24q30 0 40.5 24t10.5 78q0 55 -10 78.5t-41 23.5q-29 0 -39 -23.5t-10 -78.5z" />
<glyph unicode="|" d="M129 154v292q61 9 76 9q67 0 96 -37.5t29 -116.5t-29.5 -115t-97.5 -36q-47 0 -74 4zM158 780q0 53 33.5 91t93.5 38q39 0 78 -21t69.5 -55t58.5 -74.5t48 -81.5t35 -75t22 -55l8 -21q-117 148 -319 148q-49 0 -88 30t-39 76zM188 201q4 -2 19 -2q37 0 50 25t13 77 q0 54 -13 78t-50 24q-13 0 -19 -2v-200zM377 154v297h155v-52h-96v-69h82v-49h-82v-78h96v-49h-155zM437 1128.5q-7 46.5 24 83.5q23 23 53 34t65 3.5t64 -35.5q38 -37 48.5 -102t-2.5 -131t-31.5 -126.5t-35.5 -98.5l-18 -39q20 191 -125 330q-35 35 -42 81.5zM571 154 q3 156 15 297h80l39 -164l38 164h82q3 -45 13 -297h-60q0 108 -6 213l-41 -168h-55l-41 168h-2q-4 -140 -4 -213h-58zM647 633q3 8 9 22t25 53.5t39 75.5t50 80.5t59.5 76t66 53.5t71.5 22q49 0 79.5 -24.5t39 -51t8.5 -53.5q0 -43 -34.5 -72.5t-72.5 -34.5 q-213 -23 -340 -147zM879 301q0 81 24 117.5t84 36.5t85.5 -37t25.5 -117q0 -79 -25.5 -115t-85.5 -36t-84 35.5t-24 115.5zM938 301q0 -54 10 -78t39 -24q30 0 40.5 24t10.5 78q0 55 -10 78.5t-41 23.5q-29 0 -39 -23.5t-10 -78.5z" />
<glyph unicode="}" d="M129 154v292q61 9 76 9q67 0 96 -37.5t29 -116.5t-29.5 -115t-97.5 -36q-47 0 -74 4zM158 780q0 53 33.5 91t93.5 38q39 0 78 -21t69.5 -55t58.5 -74.5t48 -81.5t35 -75t22 -55l8 -21q-117 148 -319 148q-49 0 -88 30t-39 76zM188 201q4 -2 19 -2q37 0 50 25t13 77 q0 54 -13 78t-50 24q-13 0 -19 -2v-200zM377 154v297h155v-52h-96v-69h82v-49h-82v-78h96v-49h-155zM437 1128.5q-7 46.5 24 83.5q23 23 53 34t65 3.5t64 -35.5q38 -37 48.5 -102t-2.5 -131t-31.5 -126.5t-35.5 -98.5l-18 -39q20 191 -125 330q-35 35 -42 81.5zM571 154 q3 156 15 297h80l39 -164l38 164h82q3 -45 13 -297h-60q0 108 -6 213l-41 -168h-55l-41 168h-2q-4 -140 -4 -213h-58zM647 633q3 8 9 22t25 53.5t39 75.5t50 80.5t59.5 76t66 53.5t71.5 22q49 0 79.5 -24.5t39 -51t8.5 -53.5q0 -43 -34.5 -72.5t-72.5 -34.5 q-213 -23 -340 -147zM879 301q0 81 24 117.5t84 36.5t85.5 -37t25.5 -117q0 -79 -25.5 -115t-85.5 -36t-84 35.5t-24 115.5zM938 301q0 -54 10 -78t39 -24q30 0 40.5 24t10.5 78q0 55 -10 78.5t-41 23.5q-29 0 -39 -23.5t-10 -78.5z" />
<glyph unicode="~" d="M129 154v292q61 9 76 9q67 0 96 -37.5t29 -116.5t-29.5 -115t-97.5 -36q-47 0 -74 4zM158 780q0 53 33.5 91t93.5 38q39 0 78 -21t69.5 -55t58.5 -74.5t48 -81.5t35 -75t22 -55l8 -21q-117 148 -319 148q-49 0 -88 30t-39 76zM188 201q4 -2 19 -2q37 0 50 25t13 77 q0 54 -13 78t-50 24q-13 0 -19 -2v-200zM377 154v297h155v-52h-96v-69h82v-49h-82v-78h96v-49h-155zM437 1128.5q-7 46.5 24 83.5q23 23 53 34t65 3.5t64 -35.5q38 -37 48.5 -102t-2.5 -131t-31.5 -126.5t-35.5 -98.5l-18 -39q20 191 -125 330q-35 35 -42 81.5zM571 154 q3 156 15 297h80l39 -164l38 164h82q3 -45 13 -297h-60q0 108 -6 213l-41 -168h-55l-41 168h-2q-4 -140 -4 -213h-58zM647 633q3 8 9 22t25 53.5t39 75.5t50 80.5t59.5 76t66 53.5t71.5 22q49 0 79.5 -24.5t39 -51t8.5 -53.5q0 -43 -34.5 -72.5t-72.5 -34.5 q-213 -23 -340 -147zM879 301q0 81 24 117.5t84 36.5t85.5 -37t25.5 -117q0 -79 -25.5 -115t-85.5 -36t-84 35.5t-24 115.5zM938 301q0 -54 10 -78t39 -24q30 0 40.5 24t10.5 78q0 55 -10 78.5t-41 23.5q-29 0 -39 -23.5t-10 -78.5z" />
<glyph unicode="&#xad;" d="M129 154v292q61 9 76 9q67 0 96 -37.5t29 -116.5t-29.5 -115t-97.5 -36q-47 0 -74 4zM158 780q0 53 33.5 91t93.5 38q39 0 78 -21t69.5 -55t58.5 -74.5t48 -81.5t35 -75t22 -55l8 -21q-117 148 -319 148q-49 0 -88 30t-39 76zM188 201q4 -2 19 -2q37 0 50 25t13 77 q0 54 -13 78t-50 24q-13 0 -19 -2v-200zM377 154v297h155v-52h-96v-69h82v-49h-82v-78h96v-49h-155zM437 1128.5q-7 46.5 24 83.5q23 23 53 34t65 3.5t64 -35.5q38 -37 48.5 -102t-2.5 -131t-31.5 -126.5t-35.5 -98.5l-18 -39q20 191 -125 330q-35 35 -42 81.5zM571 154 q3 156 15 297h80l39 -164l38 164h82q3 -45 13 -297h-60q0 108 -6 213l-41 -168h-55l-41 168h-2q-4 -140 -4 -213h-58zM647 633q3 8 9 22t25 53.5t39 75.5t50 80.5t59.5 76t66 53.5t71.5 22q49 0 79.5 -24.5t39 -51t8.5 -53.5q0 -43 -34.5 -72.5t-72.5 -34.5 q-213 -23 -340 -147zM879 301q0 81 24 117.5t84 36.5t85.5 -37t25.5 -117q0 -79 -25.5 -115t-85.5 -36t-84 35.5t-24 115.5zM938 301q0 -54 10 -78t39 -24q30 0 40.5 24t10.5 78q0 55 -10 78.5t-41 23.5q-29 0 -39 -23.5t-10 -78.5z" />
<glyph unicode="&#x2000;" horiz-adv-x="779" />
<glyph unicode="&#x2001;" horiz-adv-x="1559" />
<glyph unicode="&#x2002;" horiz-adv-x="779" />
<glyph unicode="&#x2003;" horiz-adv-x="1559" />
<glyph unicode="&#x2004;" horiz-adv-x="519" />
<glyph unicode="&#x2005;" horiz-adv-x="389" />
<glyph unicode="&#x2006;" horiz-adv-x="259" />
<glyph unicode="&#x2007;" horiz-adv-x="259" />
<glyph unicode="&#x2008;" horiz-adv-x="194" />
<glyph unicode="&#x2009;" horiz-adv-x="311" />
<glyph unicode="&#x200a;" horiz-adv-x="86" />
<glyph unicode="&#x2010;" d="M129 154v292q61 9 76 9q67 0 96 -37.5t29 -116.5t-29.5 -115t-97.5 -36q-47 0 -74 4zM158 780q0 53 33.5 91t93.5 38q39 0 78 -21t69.5 -55t58.5 -74.5t48 -81.5t35 -75t22 -55l8 -21q-117 148 -319 148q-49 0 -88 30t-39 76zM188 201q4 -2 19 -2q37 0 50 25t13 77 q0 54 -13 78t-50 24q-13 0 -19 -2v-200zM377 154v297h155v-52h-96v-69h82v-49h-82v-78h96v-49h-155zM437 1128.5q-7 46.5 24 83.5q23 23 53 34t65 3.5t64 -35.5q38 -37 48.5 -102t-2.5 -131t-31.5 -126.5t-35.5 -98.5l-18 -39q20 191 -125 330q-35 35 -42 81.5zM571 154 q3 156 15 297h80l39 -164l38 164h82q3 -45 13 -297h-60q0 108 -6 213l-41 -168h-55l-41 168h-2q-4 -140 -4 -213h-58zM647 633q3 8 9 22t25 53.5t39 75.5t50 80.5t59.5 76t66 53.5t71.5 22q49 0 79.5 -24.5t39 -51t8.5 -53.5q0 -43 -34.5 -72.5t-72.5 -34.5 q-213 -23 -340 -147zM879 301q0 81 24 117.5t84 36.5t85.5 -37t25.5 -117q0 -79 -25.5 -115t-85.5 -36t-84 35.5t-24 115.5zM938 301q0 -54 10 -78t39 -24q30 0 40.5 24t10.5 78q0 55 -10 78.5t-41 23.5q-29 0 -39 -23.5t-10 -78.5z" />
<glyph unicode="&#x2011;" d="M129 154v292q61 9 76 9q67 0 96 -37.5t29 -116.5t-29.5 -115t-97.5 -36q-47 0 -74 4zM158 780q0 53 33.5 91t93.5 38q39 0 78 -21t69.5 -55t58.5 -74.5t48 -81.5t35 -75t22 -55l8 -21q-117 148 -319 148q-49 0 -88 30t-39 76zM188 201q4 -2 19 -2q37 0 50 25t13 77 q0 54 -13 78t-50 24q-13 0 -19 -2v-200zM377 154v297h155v-52h-96v-69h82v-49h-82v-78h96v-49h-155zM437 1128.5q-7 46.5 24 83.5q23 23 53 34t65 3.5t64 -35.5q38 -37 48.5 -102t-2.5 -131t-31.5 -126.5t-35.5 -98.5l-18 -39q20 191 -125 330q-35 35 -42 81.5zM571 154 q3 156 15 297h80l39 -164l38 164h82q3 -45 13 -297h-60q0 108 -6 213l-41 -168h-55l-41 168h-2q-4 -140 -4 -213h-58zM647 633q3 8 9 22t25 53.5t39 75.5t50 80.5t59.5 76t66 53.5t71.5 22q49 0 79.5 -24.5t39 -51t8.5 -53.5q0 -43 -34.5 -72.5t-72.5 -34.5 q-213 -23 -340 -147zM879 301q0 81 24 117.5t84 36.5t85.5 -37t25.5 -117q0 -79 -25.5 -115t-85.5 -36t-84 35.5t-24 115.5zM938 301q0 -54 10 -78t39 -24q30 0 40.5 24t10.5 78q0 55 -10 78.5t-41 23.5q-29 0 -39 -23.5t-10 -78.5z" />
<glyph unicode="&#x2012;" d="M129 154v292q61 9 76 9q67 0 96 -37.5t29 -116.5t-29.5 -115t-97.5 -36q-47 0 -74 4zM158 780q0 53 33.5 91t93.5 38q39 0 78 -21t69.5 -55t58.5 -74.5t48 -81.5t35 -75t22 -55l8 -21q-117 148 -319 148q-49 0 -88 30t-39 76zM188 201q4 -2 19 -2q37 0 50 25t13 77 q0 54 -13 78t-50 24q-13 0 -19 -2v-200zM377 154v297h155v-52h-96v-69h82v-49h-82v-78h96v-49h-155zM437 1128.5q-7 46.5 24 83.5q23 23 53 34t65 3.5t64 -35.5q38 -37 48.5 -102t-2.5 -131t-31.5 -126.5t-35.5 -98.5l-18 -39q20 191 -125 330q-35 35 -42 81.5zM571 154 q3 156 15 297h80l39 -164l38 164h82q3 -45 13 -297h-60q0 108 -6 213l-41 -168h-55l-41 168h-2q-4 -140 -4 -213h-58zM647 633q3 8 9 22t25 53.5t39 75.5t50 80.5t59.5 76t66 53.5t71.5 22q49 0 79.5 -24.5t39 -51t8.5 -53.5q0 -43 -34.5 -72.5t-72.5 -34.5 q-213 -23 -340 -147zM879 301q0 81 24 117.5t84 36.5t85.5 -37t25.5 -117q0 -79 -25.5 -115t-85.5 -36t-84 35.5t-24 115.5zM938 301q0 -54 10 -78t39 -24q30 0 40.5 24t10.5 78q0 55 -10 78.5t-41 23.5q-29 0 -39 -23.5t-10 -78.5z" />
<glyph unicode="&#x2013;" horiz-adv-x="1279" d="M129 154v292q64 9 80 9q71 0 101.5 -37.5t30.5 -116.5t-31 -115t-103 -36q-49 0 -78 4zM160 780q0 53 35 91t99 38q41 0 82 -21t73.5 -55t62 -74.5t50.5 -81.5t37 -75t24 -55l8 -21q-124 148 -337 148q-52 0 -93 30t-41 76zM191 201q5 -2 20 -2q40 0 53.5 25t13.5 77 q0 54 -13.5 78t-53.5 24q-13 0 -20 -2v-200zM391 154v297h164v-52h-102v-69h87v-49h-87v-78h102v-49h-164zM454.5 1128.5q-7.5 46.5 25.5 83.5q24 23 56 34t69 3.5t67 -35.5q40 -37 51.5 -102t-2.5 -131t-33.5 -126.5t-37.5 -98.5l-19 -39q21 191 -132 330 q-37 35 -44.5 81.5zM596 154q3 156 16 297h84l42 -164l40 164h87q3 -45 13 -297h-63q0 108 -7 213l-43 -168h-58l-43 168h-2q-5 -140 -5 -213h-61zM676 633q4 8 10 22t26 53.5t41.5 75.5t53 80.5t62.5 76t70 53.5t76 22q51 0 83.5 -24.5t41.5 -51t9 -53.5q0 -43 -36.5 -72.5 t-76.5 -34.5q-225 -23 -360 -147zM922 301q0 81 25 117.5t88.5 36.5t90.5 -37t27 -117q0 -79 -27 -115t-90.5 -36t-88.5 35.5t-25 115.5zM984 301q0 -54 10.5 -78t41.5 -24t42.5 24t11.5 78q0 55 -11 78.5t-43 23.5q-31 0 -41.5 -23.5t-10.5 -78.5z" />
<glyph unicode="&#x2014;" horiz-adv-x="2303" d="M129 154v292q129 9 161 9q141 0 202.5 -37.5t61.5 -116.5t-62.5 -115t-206.5 -36q-99 0 -156 4zM190 780q0 53 71 91t198 38q82 0 164.5 -21t147 -55t123.5 -74.5t101.5 -81.5t74 -75t46.5 -55l17 -21q-247 148 -674 148q-104 0 -186.5 30t-82.5 76zM254 201q8 -2 40 -2 q78 0 105.5 25t27.5 77q0 54 -27.5 78t-105.5 24q-28 0 -40 -2v-200zM653 154v297h328v-52h-203v-69h173v-49h-173v-78h203v-49h-328zM780 1128.5q-15 46.5 51 83.5q48 23 111.5 34t137.5 3.5t135 -35.5q81 -37 103 -102t-5.5 -131t-66.5 -126.5t-75 -98.5l-38 -39 q42 191 -264 330q-74 35 -89 81.5zM1063 154q7 156 32 297h169l82 -164l81 164h173q6 -45 27 -297h-126q0 108 -13 213l-87 -168h-116l-87 168h-4q-8 -140 -8 -213h-123zM1224 633q6 8 19 22t53 53.5t82 75.5t105.5 80.5t126 76t139.5 53.5t151 22q104 0 168.5 -24.5 t82.5 -51t18 -53.5q0 -43 -73 -72.5t-154 -34.5q-450 -23 -718 -147zM1714 301q0 81 51 117.5t177.5 36.5t180.5 -37t54 -117q0 -79 -54 -115t-180.5 -36t-177.5 35.5t-51 115.5zM1839 301q0 -54 21 -78t82 -24q64 0 86 24t22 78q0 55 -21 78.5t-87 23.5q-61 0 -82 -23.5 t-21 -78.5z" />
<glyph unicode="&#x202f;" horiz-adv-x="311" />
<glyph unicode="&#x205f;" horiz-adv-x="389" />
<glyph unicode="&#x25fc;" horiz-adv-x="993" d="M0 0v993h993v-993h-993z" />
</font>
</defs>
</svg>
